<svg xmlns="http://www.w3.org/2000/svg" xmlns:xlink="http://www.w3.org/1999/xlink" width="500" zoomAndPan="magnify" viewBox="0 0 375 374.999991" height="500" preserveAspectRatio="xMidYMid meet" version="1.0"><defs><clipPath id="09844217f8"><path d="M 0 0 L 375 0 L 375 375 L 0 375 Z M 0 0 " clip-rule="nonzero"/></clipPath><clipPath id="87b7a265fd"><rect x="0" width="375" y="0" height="375"/></clipPath><clipPath id="96158f3c8f"><path d="M 164.375 127.921875 L 200.585938 127.921875 L 200.585938 164.128906 L 164.375 164.128906 Z M 164.375 127.921875 " clip-rule="nonzero"/></clipPath><clipPath id="c88efa805b"><path d="M 182.480469 127.921875 C 172.480469 127.921875 164.375 136.027344 164.375 146.027344 C 164.375 156.023438 172.480469 164.128906 182.480469 164.128906 C 192.480469 164.128906 200.585938 156.023438 200.585938 146.027344 C 200.585938 136.027344 192.480469 127.921875 182.480469 127.921875 Z M 182.480469 127.921875 " clip-rule="nonzero"/></clipPath><clipPath id="3026cfb6da"><path d="M 0.375 0.921875 L 36.585938 0.921875 L 36.585938 37.128906 L 0.375 37.128906 Z M 0.375 0.921875 " clip-rule="nonzero"/></clipPath><clipPath id="5fd916f636"><path d="M 18.480469 0.921875 C 8.480469 0.921875 0.375 9.027344 0.375 19.027344 C 0.375 29.023438 8.480469 37.128906 18.480469 37.128906 C 28.480469 37.128906 36.585938 29.023438 36.585938 19.027344 C 36.585938 9.027344 28.480469 0.921875 18.480469 0.921875 Z M 18.480469 0.921875 " clip-rule="nonzero"/></clipPath><clipPath id="a1efa62cfc"><rect x="0" width="37" y="0" height="38"/></clipPath><clipPath id="ad43859dbf"><rect x="0" width="375" y="0" height="370"/></clipPath></defs><g transform="matrix(1, 0, 0, 1, 0, 0)"><g clip-path="url(#87b7a265fd)"><g clip-path="url(#09844217f8)"><rect x="-82.5" width="540" fill="#b9ff66" height="539.999987" y="-82.499998" fill-opacity="1"/></g></g></g><g transform="matrix(1, 0, 0, 1, 0, 0)"><g clip-path="url(#ad43859dbf)"><path stroke-linecap="round" transform="matrix(1.598892, 0, 0, 1.598892, -21.602211, -39.901319)" fill="none" stroke-linejoin="round" d="M 56.001098 123.998798 L 127.999196 68.000549 L 199.999737 123.998798 L 199.999737 183.998842 C 199.999737 201.999588 186.000786 216.000983 168.00004 216.000983 L 88.000796 216.000983 C 70.00005 216.000983 56.001098 201.999588 56.001098 183.998842 Z M 56.001098 123.998798 " stroke="#000000" stroke-width="12" stroke-opacity="1" stroke-miterlimit="4"/><path stroke-linecap="round" transform="matrix(1.598892, 0, 0, 1.598892, -21.602211, -39.901319)" fill="none" stroke-linejoin="round" d="M 92.000147 162.001188 C 114.000245 144.000442 142.000591 144.000442 164.000688 162.001188 " stroke="#000000" stroke-width="12" stroke-opacity="1" stroke-miterlimit="4"/><path stroke-linecap="round" transform="matrix(1.598892, 0, 0, 1.598892, -21.602211, -39.901319)" fill="none" stroke-linejoin="round" d="M 107.999996 182.000388 C 120.000493 173.999242 136.000342 173.999242 148.00084 182.000388 " stroke="#000000" stroke-width="12" stroke-opacity="1" stroke-miterlimit="4"/><g clip-path="url(#96158f3c8f)"><g clip-path="url(#c88efa805b)"><g transform="matrix(1, 0, 0, 1, 164, 127)"><g clip-path="url(#a1efa62cfc)"><g clip-path="url(#3026cfb6da)"><g clip-path="url(#5fd916f636)"><path fill="#000000" d="M 0.375 0.921875 L 36.585938 0.921875 L 36.585938 37.128906 L 0.375 37.128906 Z M 0.375 0.921875 " fill-opacity="1" fill-rule="nonzero"/></g></g></g></g></g></g></g></g></svg>