<svg xmlns="http://www.w3.org/2000/svg" xmlns:xlink="http://www.w3.org/1999/xlink" zoomAndPan="magnify" preserveAspectRatio="xMidYMid meet" version="1.0" viewBox="61.83 151.63 212.06 47.99"><defs><g/><clipPath id="5c02a47365"><rect x="0" width="101" y="0" height="46"/></clipPath></defs><path stroke-linecap="round" transform="matrix(0.243164, 0, 0, 0.243164, 219.255679, 141.098004)" fill="none" stroke-linejoin="round" d="M 55.992714 123.998577 L 127.992719 67.998573 L 199.992724 123.998577 L 199.992724 183.998581 C 199.992724 202.006615 186.000755 215.998584 167.992722 215.998584 L 87.992716 215.998584 C 70.000747 215.998584 55.992714 202.006615 55.992714 183.998581 Z M 55.992714 123.998577 " stroke="#000000" stroke-width="12" stroke-opacity="1" stroke-miterlimit="4"/><path stroke-linecap="round" transform="matrix(0.243164, 0, 0, 0.243164, 219.255679, 141.098004)" fill="none" stroke-linejoin="round" d="M 91.992716 162.006612 C 114.00075 143.998579 142.000752 143.998579 163.992721 162.006612 " stroke="#000000" stroke-width="12" stroke-opacity="1" stroke-miterlimit="4"/><path stroke-linecap="round" transform="matrix(0.243164, 0, 0, 0.243164, 219.255679, 141.098004)" fill="none" stroke-linejoin="round" d="M 107.992718 182.006613 C 119.992718 174.006613 135.992719 174.006613 147.99272 182.006613 " stroke="#000000" stroke-width="12" stroke-opacity="1" stroke-miterlimit="4"/><g transform="matrix(1, 0, 0, 1, 122, 153)"><g clip-path="url(#5c02a47365)"><g fill="#000000" fill-opacity="1"><g transform="translate(1.455818, 30.690153)"><g><path d="M 7.59375 -13.9375 L 4.890625 -16.703125 L 7.59375 -19.40625 L 10.296875 -16.703125 Z M 15.125 -13.9375 L 12.421875 -16.703125 L 15.125 -19.40625 L 17.859375 -16.703125 Z M 3.84375 2.703125 L 3.84375 -3.84375 C 3.84375 -5.21875 4.140625 -6.425781 4.734375 -7.46875 C 5.328125 -8.519531 6.144531 -9.335938 7.1875 -9.921875 C 8.238281 -10.503906 9.453125 -10.796875 10.828125 -10.796875 L 17.75 -10.796875 L 17.75 -3.109375 L 21.59375 -3.109375 L 21.59375 0 L 18.90625 0 C 17.800781 0 16.847656 -0.289062 16.046875 -0.875 C 15.253906 -1.457031 14.859375 -2.394531 14.859375 -3.6875 L 14.859375 -7.6875 L 10.828125 -7.6875 C 9.734375 -7.6875 8.816406 -7.328125 8.078125 -6.609375 C 7.347656 -5.890625 6.984375 -4.96875 6.984375 -3.84375 L 6.984375 2.703125 Z M 3.84375 2.703125 "/></g></g></g><g fill="#000000" fill-opacity="1"><g transform="translate(23.05416, 30.690153)"><g><path d="M -1.109375 0 L -2.671875 -3.109375 L 21.21875 -3.109375 L 21.21875 -10.796875 L 24.328125 -10.796875 L 24.328125 -4.25 C 24.328125 -3.46875 24.132812 -2.753906 23.75 -2.109375 C 23.375 -1.460938 22.867188 -0.945312 22.234375 -0.5625 C 21.597656 -0.1875 20.878906 0 20.078125 0 Z M 8.421875 8.125 L 5.71875 5.40625 L 8.421875 2.703125 L 11.125 5.40625 Z M 15.953125 8.125 L 13.25 5.40625 L 15.953125 2.703125 L 18.671875 5.40625 Z M 15.953125 8.125 "/></g></g></g><g fill="#000000" fill-opacity="1"><g transform="translate(50.083855, 30.690153)"><g><path d="M 8.125 0 C 7.34375 0 6.625 -0.1875 5.96875 -0.5625 C 5.3125 -0.945312 4.789062 -1.460938 4.40625 -2.109375 C 4.03125 -2.753906 3.84375 -3.46875 3.84375 -4.25 L 3.84375 -18.90625 L 6.984375 -18.90625 L 6.984375 -3.109375 L 10.828125 -3.109375 L 10.828125 0 Z M 8.125 0 "/></g></g></g><g fill="#000000" fill-opacity="1"><g transform="translate(60.914784, 30.690153)"><g><path d="M 5.4375 -19.125 L 2.734375 -21.890625 L 5.4375 -24.59375 L 8.125 -21.890625 Z M 12.953125 -19.125 L 10.265625 -21.890625 L 12.953125 -24.59375 L 15.6875 -21.890625 Z M -1.015625 0 L -2.671875 -3.109375 L 8.421875 -3.109375 L 8.421875 -3.5 C 7.128906 -3.5 5.972656 -3.773438 4.953125 -4.328125 C 3.941406 -4.890625 3.144531 -5.628906 2.5625 -6.546875 C 1.976562 -7.472656 1.6875 -8.46875 1.6875 -9.53125 C 1.6875 -10.695312 1.957031 -11.816406 2.5 -12.890625 C 3.050781 -13.972656 3.894531 -14.863281 5.03125 -15.5625 C 6.164062 -16.257812 7.59375 -16.609375 9.3125 -16.609375 C 10.914062 -16.609375 12.253906 -16.269531 13.328125 -15.59375 C 14.398438 -14.914062 15.203125 -14.03125 15.734375 -12.9375 C 16.273438 -11.851562 16.546875 -10.675781 16.546875 -9.40625 C 16.546875 -8.28125 16.347656 -7.160156 15.953125 -6.046875 C 15.566406 -4.941406 14.960938 -3.929688 14.140625 -3.015625 C 13.328125 -2.109375 12.316406 -1.378906 11.109375 -0.828125 C 9.910156 -0.273438 8.503906 0 6.890625 0 Z M 9.3125 -5.171875 C 10.238281 -5.171875 11.007812 -5.378906 11.625 -5.796875 C 12.238281 -6.210938 12.691406 -6.75 12.984375 -7.40625 C 13.285156 -8.0625 13.425781 -8.75 13.40625 -9.46875 C 13.40625 -10.164062 13.25 -10.828125 12.9375 -11.453125 C 12.632812 -12.078125 12.179688 -12.585938 11.578125 -12.984375 C 10.972656 -13.390625 10.21875 -13.59375 9.3125 -13.59375 C 8.289062 -13.59375 7.445312 -13.378906 6.78125 -12.953125 C 6.113281 -12.535156 5.613281 -12.003906 5.28125 -11.359375 C 4.957031 -10.710938 4.796875 -10.03125 4.796875 -9.3125 C 4.816406 -8.613281 4.988281 -7.953125 5.3125 -7.328125 C 5.644531 -6.703125 6.144531 -6.1875 6.8125 -5.78125 C 7.476562 -5.375 8.3125 -5.171875 9.3125 -5.171875 Z M 9.3125 -5.171875 "/></g></g></g><g fill="#000000" fill-opacity="1"><g transform="translate(79.781573, 30.690153)"><g><path d="M 0.546875 2.28125 L 0.546875 -0.796875 L 9.53125 -0.796875 L 9.53125 -1.171875 C 8.03125 -1.171875 6.75 -1.460938 5.6875 -2.046875 C 4.625 -2.628906 3.8125 -3.394531 3.25 -4.34375 C 2.695312 -5.300781 2.421875 -6.332031 2.421875 -7.4375 C 2.421875 -8.644531 2.695312 -9.800781 3.25 -10.90625 C 3.8125 -12.019531 4.65625 -12.925781 5.78125 -13.625 C 6.90625 -14.320312 8.320312 -14.671875 10.03125 -14.671875 C 11.644531 -14.671875 12.976562 -14.332031 14.03125 -13.65625 C 15.09375 -12.976562 15.894531 -12.078125 16.4375 -10.953125 C 16.976562 -9.835938 17.257812 -8.625 17.28125 -7.3125 C 17.28125 -6.144531 17.082031 -4.992188 16.6875 -3.859375 C 16.300781 -2.722656 15.695312 -1.6875 14.875 -0.75 C 14.0625 0.175781 13.050781 0.910156 11.84375 1.453125 C 10.632812 2.003906 9.226562 2.28125 7.625 2.28125 Z M 10.03125 -2.890625 C 10.96875 -2.890625 11.738281 -3.097656 12.34375 -3.515625 C 12.945312 -3.941406 13.398438 -4.5 13.703125 -5.1875 C 14.015625 -5.875 14.160156 -6.601562 14.140625 -7.375 C 14.140625 -8.113281 13.984375 -8.8125 13.671875 -9.46875 C 13.367188 -10.125 12.914062 -10.648438 12.3125 -11.046875 C 11.707031 -11.453125 10.945312 -11.65625 10.03125 -11.65625 C 9.039062 -11.65625 8.207031 -11.441406 7.53125 -11.015625 C 6.851562 -10.597656 6.347656 -10.050781 6.015625 -9.375 C 5.691406 -8.695312 5.53125 -7.972656 5.53125 -7.203125 C 5.550781 -6.460938 5.722656 -5.757812 6.046875 -5.09375 C 6.378906 -4.425781 6.878906 -3.890625 7.546875 -3.484375 C 8.210938 -3.085938 9.039062 -2.890625 10.03125 -2.890625 Z M 10.03125 -2.890625 "/></g></g></g></g></g><g fill="#000000" fill-opacity="1"><g transform="translate(59.450009, 186.72516)"><g><path d="M 19.15625 -10.796875 C 19.15625 -9.234375 18.867188 -7.796875 18.296875 -6.484375 C 17.703125 -5.148438 16.910156 -4.003906 15.921875 -3.046875 C 14.921875 -2.097656 13.742188 -1.359375 12.390625 -0.828125 C 11.035156 -0.273438 9.582031 0 8.03125 0 L 2.375 0 L 2.375 -21.59375 L 8.03125 -21.59375 C 9.582031 -21.59375 11.035156 -21.332031 12.390625 -20.8125 C 13.742188 -20.257812 14.921875 -19.503906 15.921875 -18.546875 C 16.910156 -17.597656 17.703125 -16.46875 18.296875 -15.15625 C 18.867188 -13.820312 19.15625 -12.367188 19.15625 -10.796875 Z M 17 -10.796875 C 17 -13.253906 16.128906 -15.3125 14.390625 -16.96875 C 12.691406 -18.570312 10.59375 -19.375 8.09375 -19.375 L 4.609375 -19.375 L 4.609375 -2.21875 L 8.09375 -2.21875 C 10.59375 -2.21875 12.691406 -3.023438 14.390625 -4.640625 C 16.128906 -6.285156 17 -8.335938 17 -10.796875 Z M 17 -10.796875 "/></g></g></g><g fill="#000000" fill-opacity="1"><g transform="translate(80.029117, 186.72516)"><g><path d="M 4.609375 -15.921875 L 4.609375 0 L 2.375 0 L 2.375 -22.96875 L 14.515625 -5.71875 L 14.515625 -21.59375 L 16.734375 -21.59375 L 16.734375 1.328125 Z M 4.609375 -15.921875 "/></g></g></g><g fill="#000000" fill-opacity="1"><g transform="translate(99.147364, 186.72516)"><g><path d="M 8.390625 -10.203125 C 3.984375 -11.210938 1.78125 -13.09375 1.78125 -15.84375 C 1.78125 -17.882812 2.488281 -19.410156 3.90625 -20.421875 C 5.320312 -21.421875 6.984375 -21.921875 8.890625 -21.921875 C 13.109375 -21.921875 15.609375 -20.351562 16.390625 -17.21875 L 13.984375 -17.21875 C 13.554688 -19.082031 11.859375 -20.015625 8.890625 -20.015625 C 6.816406 -20.015625 5.367188 -19.398438 4.546875 -18.171875 C 4.222656 -17.703125 4.0625 -17.117188 4.0625 -16.421875 C 4.0625 -15.085938 4.78125 -14.0625 6.21875 -13.34375 C 6.90625 -12.976562 8.347656 -12.507812 10.546875 -11.9375 C 12.742188 -11.375 14.34375 -10.738281 15.34375 -10.03125 C 16.71875 -9.0625 17.40625 -7.695312 17.40625 -5.9375 C 17.40625 -3.757812 16.546875 -2.109375 14.828125 -0.984375 C 13.390625 -0.0546875 11.613281 0.40625 9.5 0.40625 C 4.707031 0.40625 1.929688 -1.410156 1.171875 -5.046875 L 3.8125 -5.046875 C 4.21875 -2.765625 6.113281 -1.625 9.5 -1.625 C 11.914062 -1.625 13.597656 -2.289062 14.546875 -3.625 C 14.929688 -4.15625 15.125 -4.875 15.125 -5.78125 C 15.125 -6.664062 14.773438 -7.394531 14.078125 -7.96875 C 13.078125 -8.78125 11.179688 -9.523438 8.390625 -10.203125 Z M 8.390625 -10.203125 "/></g></g></g></svg>