
<svg xmlns="http://www.w3.org/2000/svg" xmlns:xlink="http://www.w3.org/1999/xlink" zoomAndPan="magnify" preserveAspectRatio="xMidYMid meet" version="1.0" viewBox="31.36 35.56 329.57 270.69"><defs><clipPath id="f9b0b48813"><path d="M 188 279.25 L 209 279.25 L 209 300.429688 L 188 300.429688 Z M 188 279.25 " clip-rule="nonzero"/></clipPath><clipPath id="09a18bedd8"><path d="M 187.882812 279.25 L 209.042969 279.25 L 209.042969 300.429688 L 187.882812 300.429688 Z M 187.882812 279.25 " clip-rule="nonzero"/></clipPath><clipPath id="79104eee8c"><path d="M 50 212.179688 L 108 212.179688 L 108 271 L 50 271 Z M 50 212.179688 " clip-rule="nonzero"/></clipPath><clipPath id="90f6dd1c9f"><path d="M 78.988281 212.179688 L 108.21875 241.4375 L 78.988281 270.691406 L 49.761719 241.4375 Z M 78.988281 212.179688 " clip-rule="nonzero"/></clipPath><clipPath id="e4029a8d5e"><path d="M 49.445312 212.179688 L 108.21875 212.179688 L 108.21875 271 L 49.445312 271 Z M 49.445312 212.179688 " clip-rule="nonzero"/></clipPath><clipPath id="871ab2d91b"><path d="M 78.988281 212.179688 L 108.21875 241.4375 L 78.988281 270.691406 L 49.761719 241.4375 Z M 78.988281 212.179688 " clip-rule="nonzero"/></clipPath></defs><g clip-path="url(#f9b0b48813)"><path fill="#000000" d="M 198.460938 282.507812 L 208.804688 279.457031 L 205.789062 289.839844 L 208.804688 300.195312 L 198.460938 297.175781 L 188.085938 300.195312 L 191.132812 289.839844 L 188.085938 279.457031 Z M 198.460938 282.507812 " fill-opacity="1" fill-rule="nonzero"/></g><g clip-path="url(#09a18bedd8)"><path stroke-linecap="butt" transform="matrix(0.587748, 0, 0, 0.588349, 15.356397, 28.024856)" fill="none" stroke-linejoin="miter" d="M 311.535688 432.537104 L 329.134636 427.351782 L 324.003825 444.999139 L 329.134636 462.600021 L 311.535688 457.467814 L 293.883571 462.600021 L 299.067551 444.999139 L 293.883571 427.351782 Z M 311.535688 432.537104 " stroke="#ffffff" stroke-width="1" stroke-opacity="1" stroke-miterlimit="10"/></g><g clip-path="url(#79104eee8c)"><g clip-path="url(#90f6dd1c9f)"><path fill="#000000" d="M 89.109375 231.304688 L 107.609375 241.394531 L 89.109375 251.566406 L 78.988281 270.042969 L 68.867188 251.566406 L 50.367188 241.394531 L 68.867188 231.304688 L 78.988281 212.746094 Z M 89.109375 231.304688 " fill-opacity="1" fill-rule="nonzero"/></g></g><g clip-path="url(#e4029a8d5e)"><g clip-path="url(#871ab2d91b)"><path stroke-linecap="butt" transform="matrix(0.587748, 0, 0, 0.588349, 15.356397, 28.024856)" fill="none" stroke-linejoin="miter" d="M 125.48397 345.508677 L 156.960034 362.658084 L 125.48397 379.946917 L 108.263852 411.35098 L 91.043733 379.946917 L 59.567669 362.658084 L 91.043733 345.508677 L 108.263852 313.965188 Z M 125.48397 345.508677 " stroke="#ffffff" stroke-width="1" stroke-opacity="1" stroke-miterlimit="10"/></g></g><path stroke-linecap="butt" transform="matrix(0.587748, 0, 0, 0.588349, 15.356397, 28.024856)" fill="none" stroke-linejoin="miter" d="M 565.118716 389.334939 C 563.217923 392.774116 559.682183 395.270506 554.584603 396.810832 C 549.487022 398.357798 542.874124 398.94206 534.912063 398.596814 C 518.994585 397.912962 497.793436 393.524361 472.777408 385.869205 C 422.758646 370.558895 357.593358 342.215566 289.158174 304.464297 C 220.716344 266.713028 161.984507 226.717663 122.346998 192.578193 C 102.528243 175.501818 87.507993 159.906016 78.436027 146.813244 C 73.896722 140.260219 70.866087 134.357848 69.450462 129.219001 C 68.041483 124.086794 68.260805 119.764586 70.161598 116.31877 C 72.06239 112.872954 75.598131 110.383203 80.695711 108.836237 C 85.793291 107.295911 92.399543 106.71165 100.361605 107.050256 C 116.285728 107.740747 137.486878 112.129348 162.502905 119.784504 C 212.521667 135.094815 277.68031 163.438143 346.12214 201.189413 C 414.56397 238.934042 473.295806 278.936047 512.92667 313.075517 C 532.745425 330.151891 547.765675 345.741054 556.844286 358.840465 C 561.376946 365.393491 564.414227 371.295861 565.823206 376.434708 C 567.238831 381.566915 567.019509 385.889123 565.118716 389.334939 Z M 565.118716 389.334939 " stroke="#000000" stroke-width="1" stroke-opacity="1" stroke-miterlimit="4"/><path stroke-linecap="butt" transform="matrix(0.587748, 0, 0, 0.588349, 15.356397, 28.024856)" fill="none" stroke-linejoin="miter" d="M 544.887901 426.003996 C 542.987109 429.449812 539.451368 431.939564 534.353788 433.486529 C 529.256207 435.033494 522.64331 435.617756 514.681248 435.272511 C 498.76377 434.588659 477.562621 430.200057 452.546594 422.544902 C 402.527832 407.234591 337.362543 378.891262 268.920713 341.139993 C 200.485529 303.388724 141.753692 263.393359 102.116183 229.24725 C 82.297428 212.177515 67.277178 196.581713 58.205213 183.482301 C 53.665907 176.935915 50.635272 171.026905 49.219647 165.894698 C 47.810668 160.755851 48.02999 156.433643 49.930783 152.994467 C 51.831575 149.548651 55.367316 147.058899 60.464896 145.511934 C 65.562477 143.964969 72.175374 143.380707 80.13079 143.725952 C 96.054914 144.409804 117.256063 148.805045 142.27209 156.4602 C 192.290853 171.763872 257.449495 200.107201 325.891325 237.85847 C 394.333155 275.609739 453.064992 315.605104 492.695855 349.751213 C 512.51461 366.820948 527.541506 382.41675 536.613472 395.516162 C 541.152777 402.069187 544.183412 407.971558 545.592391 413.103765 C 547.008016 418.242612 546.788694 422.56482 544.887901 426.003996 Z M 544.887901 426.003996 " stroke="#000000" stroke-width="1" stroke-opacity="1" stroke-miterlimit="4"/><path stroke-linecap="butt" transform="matrix(0.587748, 0, 0, 0.588349, 15.356397, 28.024856)" fill="none" stroke-linejoin="miter" d="M 524.657087 462.679693 C 522.756294 466.125509 519.220554 468.61526 514.122973 470.162226 C 509.025393 471.709191 502.412495 472.293453 494.457079 471.948207 C 478.532956 471.257716 457.331806 466.869115 432.315779 459.213959 C 382.297017 443.903648 317.131728 415.566959 248.696544 377.81569 C 180.254714 340.064421 121.522878 300.069056 81.892014 265.922946 C 62.073259 248.853212 47.046363 233.257409 37.974398 220.157998 C 33.435092 213.604972 30.404458 207.702602 28.995478 202.563755 C 27.579853 197.431548 27.799175 193.10934 29.699968 189.670163 C 31.600761 186.224347 35.136501 183.734596 40.234081 182.187631 C 45.331662 180.640665 51.94456 180.056403 59.906621 180.401649 C 75.824099 181.085501 97.025248 185.474102 122.041276 193.129258 C 172.060038 208.439568 237.225327 236.782897 305.66051 274.534166 C 374.10234 312.285435 432.834177 352.2808 472.471687 386.42691 C 492.290441 403.496645 507.310692 419.092447 516.382657 432.191858 C 520.921962 438.738244 523.952597 444.647254 525.368222 449.779462 C 526.777202 454.918308 526.557879 459.233877 524.657087 462.679693 Z M 524.657087 462.679693 " stroke="#000000" stroke-width="1" stroke-opacity="1" stroke-miterlimit="4"/><path fill="#b9ff66" d="M 102.070312 89.507812 C 102.070312 90.105469 102.011719 90.699219 101.894531 91.285156 C 101.777344 91.875 101.605469 92.445312 101.378906 92.996094 C 101.148438 93.550781 100.867188 94.074219 100.535156 94.574219 C 100.203125 95.070312 99.824219 95.53125 99.402344 95.957031 C 98.980469 96.378906 98.519531 96.757812 98.023438 97.089844 C 97.523438 97.421875 97 97.703125 96.445312 97.933594 C 95.894531 98.160156 95.324219 98.335938 94.738281 98.453125 C 94.152344 98.570312 93.558594 98.625 92.960938 98.625 C 92.363281 98.625 91.769531 98.570312 91.183594 98.453125 C 90.597656 98.335938 90.027344 98.160156 89.476562 97.933594 C 88.921875 97.703125 88.398438 97.421875 87.898438 97.089844 C 87.402344 96.757812 86.941406 96.378906 86.519531 95.957031 C 86.097656 95.53125 85.71875 95.070312 85.386719 94.574219 C 85.054688 94.074219 84.773438 93.550781 84.542969 92.996094 C 84.316406 92.445312 84.140625 91.875 84.027344 91.285156 C 83.910156 90.699219 83.851562 90.105469 83.851562 89.507812 C 83.851562 88.910156 83.910156 88.316406 84.027344 87.726562 C 84.140625 87.140625 84.316406 86.570312 84.542969 86.015625 C 84.773438 85.464844 85.054688 84.9375 85.386719 84.441406 C 85.71875 83.941406 86.097656 83.480469 86.519531 83.058594 C 86.941406 82.636719 87.402344 82.257812 87.898438 81.925781 C 88.398438 81.59375 88.921875 81.3125 89.476562 81.082031 C 90.027344 80.851562 90.597656 80.679688 91.183594 80.5625 C 91.769531 80.445312 92.363281 80.386719 92.960938 80.386719 C 93.558594 80.386719 94.152344 80.445312 94.738281 80.5625 C 95.324219 80.679688 95.894531 80.851562 96.445312 81.082031 C 97 81.3125 97.523438 81.59375 98.023438 81.925781 C 98.519531 82.257812 98.980469 82.636719 99.402344 83.058594 C 99.824219 83.480469 100.203125 83.941406 100.535156 84.441406 C 100.867188 84.9375 101.148438 85.464844 101.378906 86.015625 C 101.605469 86.570312 101.777344 87.140625 101.894531 87.726562 C 102.011719 88.316406 102.070312 88.910156 102.070312 89.507812 Z M 102.070312 89.507812 " fill-opacity="1" fill-rule="nonzero"/><path fill="#b9ff66" d="M 268.992188 283.957031 C 268.992188 284.34375 268.953125 284.726562 268.878906 285.105469 C 268.804688 285.484375 268.691406 285.851562 268.542969 286.207031 C 268.394531 286.566406 268.214844 286.90625 268 287.226562 C 267.785156 287.546875 267.542969 287.84375 267.269531 288.117188 C 266.996094 288.390625 266.699219 288.632812 266.378906 288.847656 C 266.058594 289.0625 265.71875 289.246094 265.363281 289.390625 C 265.007812 289.539062 264.640625 289.652344 264.261719 289.726562 C 263.882812 289.800781 263.5 289.839844 263.113281 289.839844 C 262.726562 289.839844 262.347656 289.800781 261.96875 289.726562 C 261.589844 289.652344 261.222656 289.539062 260.863281 289.390625 C 260.507812 289.246094 260.167969 289.0625 259.847656 288.847656 C 259.527344 288.632812 259.230469 288.390625 258.957031 288.117188 C 258.683594 287.84375 258.441406 287.546875 258.226562 287.226562 C 258.011719 286.90625 257.832031 286.566406 257.683594 286.207031 C 257.535156 285.851562 257.425781 285.484375 257.347656 285.105469 C 257.273438 284.726562 257.238281 284.34375 257.238281 283.957031 C 257.238281 283.570312 257.273438 283.1875 257.347656 282.808594 C 257.425781 282.429688 257.535156 282.0625 257.683594 281.707031 C 257.832031 281.347656 258.011719 281.007812 258.226562 280.6875 C 258.441406 280.367188 258.683594 280.070312 258.957031 279.796875 C 259.230469 279.523438 259.527344 279.28125 259.847656 279.066406 C 260.167969 278.851562 260.507812 278.667969 260.863281 278.519531 C 261.222656 278.375 261.589844 278.261719 261.96875 278.1875 C 262.347656 278.109375 262.726562 278.074219 263.113281 278.074219 C 263.5 278.074219 263.882812 278.109375 264.261719 278.1875 C 264.640625 278.261719 265.007812 278.375 265.363281 278.519531 C 265.71875 278.667969 266.058594 278.851562 266.378906 279.066406 C 266.699219 279.28125 266.996094 279.523438 267.269531 279.796875 C 267.542969 280.070312 267.785156 280.367188 268 280.6875 C 268.214844 281.007812 268.394531 281.347656 268.542969 281.707031 C 268.691406 282.0625 268.804688 282.429688 268.878906 282.808594 C 268.953125 283.1875 268.992188 283.570312 268.992188 283.957031 Z M 268.992188 283.957031 " fill-opacity="1" fill-rule="nonzero"/><path fill="#000000" d="M 77.386719 65.972656 C 77.386719 66.882812 77.296875 67.78125 77.121094 68.671875 C 76.941406 69.5625 76.679688 70.425781 76.335938 71.265625 C 75.988281 72.101562 75.5625 72.898438 75.058594 73.65625 C 74.554688 74.410156 73.980469 75.109375 73.339844 75.75 C 72.699219 76.390625 72 76.964844 71.246094 77.46875 C 70.492188 77.972656 69.695312 78.398438 68.859375 78.746094 C 68.019531 79.09375 67.15625 79.355469 66.269531 79.535156 C 65.378906 79.710938 64.480469 79.800781 63.574219 79.800781 C 62.667969 79.800781 61.769531 79.710938 60.878906 79.535156 C 59.988281 79.355469 59.125 79.09375 58.289062 78.746094 C 57.449219 78.398438 56.652344 77.972656 55.898438 77.46875 C 55.144531 76.964844 54.449219 76.390625 53.808594 75.75 C 53.164062 75.109375 52.59375 74.410156 52.089844 73.65625 C 51.585938 72.898438 51.160156 72.101562 50.8125 71.265625 C 50.464844 70.425781 50.203125 69.5625 50.027344 68.671875 C 49.851562 67.78125 49.761719 66.882812 49.761719 65.972656 C 49.761719 65.066406 49.851562 64.167969 50.027344 63.277344 C 50.203125 62.386719 50.464844 61.519531 50.8125 60.683594 C 51.160156 59.84375 51.585938 59.046875 52.089844 58.292969 C 52.59375 57.539062 53.164062 56.839844 53.808594 56.195312 C 54.449219 55.554688 55.144531 54.980469 55.898438 54.476562 C 56.652344 53.972656 57.449219 53.546875 58.289062 53.199219 C 59.125 52.851562 59.988281 52.589844 60.878906 52.414062 C 61.769531 52.234375 62.667969 52.148438 63.574219 52.148438 C 64.480469 52.148438 65.378906 52.234375 66.269531 52.414062 C 67.15625 52.589844 68.019531 52.851562 68.859375 53.199219 C 69.695312 53.546875 70.492188 53.972656 71.246094 54.476562 C 72 54.980469 72.699219 55.554688 73.339844 56.195312 C 73.980469 56.839844 74.554688 57.539062 75.058594 58.292969 C 75.5625 59.046875 75.988281 59.84375 76.335938 60.683594 C 76.679688 61.519531 76.941406 62.386719 77.121094 63.277344 C 77.296875 64.167969 77.386719 65.066406 77.386719 65.972656 Z M 77.386719 65.972656 " fill-opacity="1" fill-rule="nonzero"/><path fill="#000000" d="M 294.960938 76.03125 C 305.480469 70.5 309.550781 57.511719 304.050781 47.019531 C 298.550781 36.527344 285.5625 32.511719 275.039062 38.042969 C 264.519531 43.574219 260.449219 56.566406 265.953125 67.054688 C 271.453125 77.546875 284.441406 81.566406 294.960938 76.03125 Z M 294.960938 76.03125 " fill-opacity="1" fill-rule="nonzero"/><path fill="#ffffff" d="M 275.203125 52.285156 C 276.214844 50.902344 277.710938 50.050781 279.414062 49.867188 C 280.703125 49.726562 281.898438 50.003906 283.027344 50.695312 C 283.601562 51.042969 284.109375 51.480469 284.59375 52.007812 C 284.9375 51.386719 285.351562 50.832031 285.835938 50.371094 C 286.777344 49.449219 287.90625 48.921875 289.171875 48.78125 C 290.875 48.597656 292.53125 49.105469 293.820312 50.234375 C 295.085938 51.339844 295.890625 52.953125 296.097656 54.773438 C 296.304688 56.640625 295.800781 58.4375 294.511719 60.421875 C 293.359375 62.195312 291.609375 64.039062 289.585938 66.207031 C 288.894531 66.941406 288.113281 67.773438 287.308594 68.648438 C 287.101562 68.878906 286.800781 69.039062 286.480469 69.0625 C 286.15625 69.109375 285.859375 69.015625 285.582031 68.832031 C 284.59375 68.140625 283.648438 67.496094 282.820312 66.941406 C 280.378906 65.285156 278.261719 63.855469 276.746094 62.378906 C 275.042969 60.742188 274.167969 59.085938 273.960938 57.21875 C 273.777344 55.398438 274.214844 53.644531 275.203125 52.285156 Z M 275.203125 52.285156 " fill-opacity="1" fill-rule="nonzero"/><path fill="#b9ff66" d="M 354.648438 77.207031 C 362.347656 69.492188 362.347656 56.988281 354.648438 49.273438 C 346.945312 41.5625 334.457031 41.5625 326.753906 49.273438 C 319.054688 56.988281 319.054688 69.492188 326.753906 77.207031 C 334.457031 84.917969 346.945312 84.917969 354.648438 77.207031 Z M 354.648438 77.207031 " fill-opacity="1" fill-rule="nonzero"/><path fill="#b9ff66" d="M 340.699219 83.492188 C 329.558594 83.492188 320.46875 74.410156 320.46875 63.234375 C 320.46875 52.078125 329.535156 42.976562 340.699219 42.976562 C 351.859375 42.976562 360.925781 52.054688 360.925781 63.234375 C 360.925781 74.386719 351.859375 83.492188 340.699219 83.492188 Z M 340.699219 43.988281 C 330.113281 43.988281 321.480469 52.609375 321.480469 63.234375 C 321.480469 73.835938 330.089844 82.476562 340.699219 82.476562 C 351.285156 82.476562 359.914062 73.855469 359.914062 63.234375 C 359.914062 52.632812 351.308594 43.988281 340.699219 43.988281 Z M 340.699219 43.988281 " fill-opacity="1" fill-rule="nonzero"/><path fill="#000000" d="M 346.035156 65.191406 C 344.933594 65.191406 343.964844 65.722656 343.320312 66.550781 L 336.671875 63.945312 C 336.671875 63.855469 336.691406 63.785156 336.691406 63.695312 C 336.691406 63.53125 336.671875 63.371094 336.648438 63.210938 L 343.460938 60.050781 C 344.082031 60.765625 345 61.226562 346.035156 61.25 C 347.921875 61.25 349.488281 59.707031 349.488281 57.792969 C 349.488281 55.882812 347.945312 54.3125 346.035156 54.3125 C 344.148438 54.3125 342.585938 55.859375 342.585938 57.769531 C 342.585938 57.933594 342.609375 58.09375 342.628906 58.253906 L 335.820312 61.410156 C 335.195312 60.699219 334.277344 60.238281 333.242188 60.214844 C 331.355469 60.214844 329.789062 61.757812 329.789062 63.671875 C 329.789062 65.582031 331.332031 67.152344 333.242188 67.152344 C 334.34375 67.152344 335.3125 66.621094 335.957031 65.789062 L 342.609375 68.394531 C 342.609375 68.488281 342.585938 68.554688 342.585938 68.648438 C 342.585938 70.5625 344.125 72.128906 346.035156 72.128906 C 347.921875 72.128906 349.488281 70.585938 349.488281 68.671875 C 349.464844 66.757812 347.921875 65.214844 346.035156 65.191406 Z M 346.035156 65.191406 " fill-opacity="1" fill-rule="nonzero"/><path fill="#000000" d="M 346.296875 139.808594 C 355.328125 133.527344 357.597656 121.152344 351.367188 112.160156 C 345.132812 103.164062 332.757812 100.964844 323.726562 107.242188 C 314.695312 113.519531 312.425781 125.898438 318.660156 134.890625 C 324.890625 143.882812 337.265625 146.085938 346.296875 139.808594 Z M 346.296875 139.808594 " fill-opacity="1" fill-rule="nonzero"/><path fill="#ffffff" d="M 330.042969 132.96875 L 327.144531 117.230469 C 327.003906 116.421875 327.742188 115.753906 328.523438 115.960938 L 345.667969 120.824219 C 346.542969 121.078125 346.75 122.207031 346.039062 122.761719 L 331.769531 133.640625 C 331.148438 134.144531 330.203125 133.800781 330.042969 132.96875 Z M 330.042969 132.96875 " fill-opacity="1" fill-rule="nonzero"/><path fill="#b9ff66" d="M 334.816406 204.285156 C 345.972656 198.847656 350.636719 185.441406 345.242188 174.339844 C 339.847656 163.238281 326.429688 158.648438 315.277344 164.085938 C 304.125 169.523438 299.457031 182.929688 304.851562 194.03125 C 310.25 205.128906 323.664062 209.71875 334.816406 204.285156 Z M 334.816406 204.285156 " fill-opacity="1" fill-rule="nonzero"/><path fill="#000000" d="M 324.933594 207.085938 C 322.539062 207.085938 320.101562 206.71875 317.730469 205.910156 C 311.929688 203.976562 307.234375 199.921875 304.519531 194.433594 C 301.804688 188.972656 301.390625 182.773438 303.347656 176.964844 C 307.398438 165.003906 320.421875 158.484375 332.414062 162.46875 C 338.210938 164.40625 342.90625 168.460938 345.621094 173.945312 C 348.339844 179.410156 348.753906 185.609375 346.796875 191.414062 C 343.527344 201.003906 334.53125 207.085938 324.933594 207.085938 Z M 325.164062 162.332031 C 315.980469 162.332031 307.375 168.140625 304.265625 177.3125 C 302.402344 182.867188 302.792969 188.789062 305.394531 193.996094 C 307.996094 199.230469 312.484375 203.125 318.03125 204.96875 C 329.488281 208.769531 341.941406 202.546875 345.808594 191.117188 C 347.671875 185.5625 347.28125 179.640625 344.679688 174.429688 C 342.078125 169.199219 337.589844 165.304688 332.046875 163.460938 C 329.765625 162.675781 327.441406 162.332031 325.164062 162.332031 Z M 325.164062 162.332031 " fill-opacity="1" fill-rule="nonzero"/><path fill="#000000" d="M 336.488281 180.5625 C 336.257812 186.160156 326.800781 199.25 324.542969 202.316406 C 324.3125 202.640625 323.832031 202.617188 323.621094 202.269531 C 322.195312 199.964844 317.476562 192.222656 315.015625 185.953125 C 314.027344 183.464844 313.40625 181.207031 313.472656 179.617188 C 313.726562 173.253906 319.089844 168.300781 325.441406 168.554688 C 331.792969 168.851562 336.742188 174.199219 336.488281 180.5625 Z M 336.488281 180.5625 " fill-opacity="1" fill-rule="nonzero"/><path fill="#b9ff66" d="M 328.703125 183.835938 C 330.761719 181.773438 330.761719 178.433594 328.703125 176.371094 C 326.644531 174.3125 323.308594 174.3125 321.25 176.371094 C 319.191406 178.433594 319.191406 181.773438 321.25 183.835938 C 323.308594 185.898438 326.644531 185.898438 328.703125 183.835938 Z M 328.703125 183.835938 " fill-opacity="1" fill-rule="nonzero"/><path fill="#ffffff" d="M 144.105469 133.679688 C 163.953125 113.707031 157.871094 101.464844 171.449219 92.21875 C 192.34375 77.988281 231.742188 89.953125 254.75 109.523438 C 282.929688 133.496094 297.46875 177.269531 280.90625 216.867188 C 263.265625 259.035156 216.859375 280.929688 175.453125 274.332031 C 138.472656 268.441406 102.746094 240.128906 99.101562 205.175781 C 98.707031 201.386719 96.34375 180.074219 108.566406 162.417969 C 118.667969 147.820312 128.375 149.511719 144.105469 133.679688 " fill-opacity="1" fill-rule="nonzero"/><path fill="#b9ff66" d="M 224.894531 203.414062 L 189.523438 203.632812 C 189.292969 203.632812 189.21875 203.847656 189.21875 204.050781 L 189.21875 234.144531 C 189.21875 237.027344 169.121094 244.515625 168.925781 244.132812 L 168.898438 247.320312 C 168.898438 247.910156 169.417969 248.4375 170.085938 248.4375 L 170.527344 248.4375 C 170.53125 248.4375 170.53125 248.4375 170.535156 248.4375 L 200.191406 248.4375 C 201.570312 248.4375 202.929688 248.128906 204.175781 247.609375 L 220.480469 240.742188 C 223.417969 239.507812 225.269531 236.851562 225.269531 233.957031 L 225.269531 203.828125 C 225.269531 203.625 225.125 203.414062 224.894531 203.414062 " fill-opacity="1" fill-rule="nonzero"/><path fill="#ffffff" d="M 185.636719 201.882812 L 185.636719 231.980469 C 185.636719 234.949219 183.726562 237.652344 180.726562 238.933594 L 169.726562 243.628906 C 169.007812 243.9375 169.253906 244.898438 170.050781 244.898438 L 200.269531 244.898438 C 201.632812 244.898438 202.972656 244.628906 204.203125 244.113281 L 216.390625 238.980469 C 219.414062 237.707031 221.339844 234.996094 221.339844 232.011719 L 221.339844 201.882812 C 221.339844 201.757812 221.230469 201.660156 221.089844 201.660156 L 185.886719 201.660156 C 185.75 201.660156 185.636719 201.757812 185.636719 201.882812 " fill-opacity="1" fill-rule="nonzero"/><path fill="#000000" d="M 119.746094 218.9375 L 265.1875 219.253906 L 267.714844 219.261719 L 272.410156 219.273438 C 273.746094 219.273438 274.839844 218.230469 275.011719 216.902344 L 287.171875 121.863281 C 287.46875 119.554688 285.78125 117.371094 283.453125 117.371094 L 132.765625 117.507812 L 119.746094 218.9375 " fill-opacity="1" fill-rule="nonzero"/><path fill="#b9ff66" d="M 277.804688 117.347656 C 280.425781 117.347656 282.558594 119.988281 282.222656 122.597656 L 269.976562 216.90625 C 269.804688 218.234375 268.679688 219.226562 267.34375 219.226562 L 266.195312 219.269531 L 117.730469 219.226562 C 116.128906 219.226562 114.894531 217.816406 115.097656 216.226562 L 127.59375 119.996094 C 127.765625 118.671875 128.785156 117.347656 130.117188 117.347656 L 277.804688 117.347656 " fill-opacity="1" fill-rule="nonzero"/><path fill="#000000" d="M 193.972656 219.429688 C 193.785156 219.429688 193.628906 219.277344 193.628906 219.089844 C 193.628906 218.898438 193.78125 218.746094 193.972656 218.746094 L 267.390625 218.613281 C 268.546875 218.613281 269.648438 217.621094 269.796875 216.449219 L 281.882812 122.554688 C 282.03125 121.40625 281.679688 120.25 280.914062 119.382812 C 280.152344 118.515625 279.058594 118.019531 277.910156 118.019531 L 253.039062 118.019531 C 252.847656 118.019531 252.695312 117.867188 252.695312 117.679688 C 252.695312 117.488281 252.847656 117.335938 253.039062 117.335938 L 277.910156 117.335938 C 279.257812 117.335938 280.539062 117.917969 281.429688 118.929688 C 282.324219 119.945312 282.734375 121.296875 282.5625 122.640625 L 270.480469 216.535156 C 270.28125 218.058594 268.898438 219.296875 267.394531 219.296875 L 193.972656 219.429688 " fill-opacity="1" fill-rule="nonzero"/><path fill="#ffffff" d="M 241.191406 109.238281 C 241.363281 107.925781 240.34375 106.765625 239.023438 106.765625 L 121.878906 106.765625 C 121.207031 106.765625 120.640625 107.265625 120.554688 107.933594 L 111.109375 178.703125 C 111.011719 179.425781 111.574219 180.070312 112.304688 180.070312 L 230.578125 180.070312 C 231.246094 180.070312 231.8125 179.570312 231.898438 178.902344 L 241.191406 109.238281 " fill-opacity="1" fill-rule="nonzero"/><path fill="#b9ff66" d="M 239.023438 106.765625 C 240.34375 106.765625 241.363281 107.925781 241.191406 109.238281 L 240.304688 115.089844 L 119.425781 115.066406 L 120.554688 107.933594 C 120.640625 107.265625 121.207031 106.765625 121.878906 106.765625 L 239.023438 106.765625 " fill-opacity="1" fill-rule="nonzero"/><path fill="#ffffff" d="M 171.070312 111.296875 C 171.179688 110.464844 170.527344 109.726562 169.691406 109.726562 L 126.386719 109.726562 C 125.683594 109.726562 125.09375 110.25 125.003906 110.945312 C 124.898438 111.777344 125.546875 112.515625 126.386719 112.515625 L 169.691406 112.515625 C 170.390625 112.515625 170.980469 111.992188 171.070312 111.296875 " fill-opacity="1" fill-rule="nonzero"/><path fill="#ffffff" d="M 224.238281 111.296875 C 224.34375 110.464844 223.695312 109.726562 222.855469 109.726562 L 218.902344 109.726562 C 218.203125 109.726562 217.609375 110.25 217.519531 110.945312 C 217.414062 111.777344 218.0625 112.515625 218.902344 112.515625 L 222.855469 112.515625 C 223.558594 112.515625 224.148438 111.992188 224.238281 111.296875 " fill-opacity="1" fill-rule="nonzero"/><path fill="#000000" d="M 121.878906 107.105469 C 121.378906 107.105469 120.957031 107.480469 120.894531 107.976562 L 111.449219 178.746094 C 111.417969 178.992188 111.492188 179.242188 111.65625 179.429688 C 111.820312 179.617188 112.054688 179.726562 112.304688 179.726562 L 230.578125 179.726562 C 231.074219 179.726562 231.496094 179.351562 231.5625 178.859375 L 231.5625 178.855469 L 240.851562 109.191406 C 240.921875 108.667969 240.757812 108.132812 240.40625 107.734375 C 240.058594 107.335938 239.550781 107.105469 239.023438 107.105469 Z M 230.578125 180.410156 L 112.304688 180.410156 C 111.859375 180.410156 111.433594 180.21875 111.140625 179.882812 C 110.84375 179.546875 110.710938 179.101562 110.769531 178.65625 L 120.214844 107.886719 C 120.320312 107.050781 121.035156 106.421875 121.878906 106.421875 L 239.023438 106.421875 C 239.75 106.421875 240.441406 106.734375 240.921875 107.28125 C 241.402344 107.828125 241.625 108.558594 241.53125 109.28125 L 232.242188 178.945312 C 232.132812 179.78125 231.417969 180.410156 230.578125 180.410156 " fill-opacity="1" fill-rule="nonzero"/><path fill="#ffffff" d="M 287.421875 155.824219 C 287.542969 154.882812 286.8125 154.050781 285.867188 154.050781 L 201.90625 154.050781 C 201.425781 154.050781 201.019531 154.40625 200.957031 154.886719 L 194.1875 205.609375 C 194.121094 206.125 194.523438 206.585938 195.046875 206.585938 L 279.8125 206.585938 C 280.292969 206.585938 280.699219 206.226562 280.761719 205.75 L 287.421875 155.824219 " fill-opacity="1" fill-rule="nonzero"/><path fill="#b9ff66" d="M 285.867188 154.050781 C 286.8125 154.050781 287.542969 154.882812 287.421875 155.824219 L 286.785156 160.011719 L 200.148438 160 L 200.957031 154.886719 C 201.019531 154.40625 201.425781 154.050781 201.90625 154.050781 L 285.867188 154.050781 " fill-opacity="1" fill-rule="nonzero"/><path fill="#ffffff" d="M 237.164062 157.296875 C 237.238281 156.703125 236.777344 156.171875 236.175781 156.171875 L 205.136719 156.171875 C 204.632812 156.171875 204.210938 156.546875 204.148438 157.046875 C 204.070312 157.640625 204.535156 158.167969 205.136719 158.167969 L 236.175781 158.167969 C 236.675781 158.167969 237.101562 157.796875 237.164062 157.296875 " fill-opacity="1" fill-rule="nonzero"/><path fill="#b9ff66" d="M 194.964844 199.621094 L 194.1875 205.574219 C 194.121094 206.09375 194.523438 206.480469 195.046875 206.480469 L 279.8125 206.480469 C 280.292969 206.480469 280.699219 206.195312 280.761719 205.714844 L 281.554688 199.621094 L 194.964844 199.621094 " fill-opacity="1" fill-rule="nonzero"/><path fill="#ffffff" d="M 282.261719 157.296875 C 282.335938 156.699219 281.871094 156.171875 281.269531 156.171875 L 278.4375 156.171875 C 277.933594 156.171875 277.511719 156.546875 277.445312 157.042969 C 277.371094 157.640625 277.835938 158.167969 278.4375 158.167969 L 281.269531 158.167969 C 281.773438 158.167969 282.195312 157.796875 282.261719 157.296875 " fill-opacity="1" fill-rule="nonzero"/><path fill="#000000" d="M 201.90625 154.390625 C 201.597656 154.390625 201.335938 154.621094 201.296875 154.929688 L 194.527344 205.652344 C 194.507812 205.804688 194.550781 205.949219 194.652344 206.066406 C 194.753906 206.179688 194.894531 206.242188 195.046875 206.242188 L 279.8125 206.242188 C 280.121094 206.242188 280.382812 206.011719 280.421875 205.707031 L 287.082031 155.777344 C 287.128906 155.425781 287.019531 155.074219 286.785156 154.808594 C 286.554688 154.542969 286.21875 154.390625 285.867188 154.390625 Z M 279.8125 206.929688 L 195.046875 206.929688 C 194.699219 206.929688 194.367188 206.777344 194.136719 206.515625 C 193.90625 206.257812 193.800781 205.90625 193.847656 205.5625 L 200.617188 154.839844 C 200.703125 154.195312 201.253906 153.707031 201.90625 153.707031 L 285.867188 153.707031 C 286.417969 153.707031 286.9375 153.941406 287.300781 154.355469 C 287.664062 154.769531 287.832031 155.320312 287.761719 155.867188 L 281.101562 205.796875 C 281.015625 206.441406 280.464844 206.929688 279.8125 206.929688 " fill-opacity="1" fill-rule="nonzero"/><path fill="#ffffff" d="M 188.027344 174.703125 C 188.144531 173.804688 187.449219 173.011719 186.546875 173.011719 L 106.519531 173.011719 C 106.0625 173.011719 105.675781 173.351562 105.617188 173.808594 L 99.164062 222.15625 C 99.097656 222.648438 99.480469 223.085938 99.980469 223.085938 L 180.777344 223.085938 C 181.234375 223.085938 181.621094 222.746094 181.679688 222.289062 L 188.027344 174.703125 " fill-opacity="1" fill-rule="nonzero"/><path fill="#b9ff66" d="M 186.546875 173.011719 C 187.449219 173.011719 188.144531 173.804688 188.027344 174.703125 L 187.421875 178.699219 L 104.84375 178.683594 L 105.617188 173.808594 C 105.675781 173.351562 106.0625 173.011719 106.519531 173.011719 L 186.546875 173.011719 " fill-opacity="1" fill-rule="nonzero"/><path fill="#b9ff66" d="M 179.253906 188.898438 L 159.742188 188.898438 C 159.300781 188.898438 158.941406 188.539062 158.941406 188.097656 C 158.941406 187.65625 159.300781 187.296875 159.742188 187.296875 L 179.253906 187.296875 C 179.695312 187.296875 180.054688 187.65625 180.054688 188.097656 C 180.054688 188.539062 179.695312 188.898438 179.253906 188.898438 " fill-opacity="1" fill-rule="nonzero"/><path fill="#b9ff66" d="M 177.691406 195.300781 L 158.699219 195.300781 C 158.257812 195.300781 157.898438 194.945312 157.898438 194.503906 C 157.898438 194.058594 158.257812 193.703125 158.699219 193.703125 L 177.691406 193.703125 C 178.132812 193.703125 178.488281 194.058594 178.488281 194.503906 C 178.488281 194.945312 178.132812 195.300781 177.691406 195.300781 " fill-opacity="1" fill-rule="nonzero"/><path fill="#b9ff66" d="M 177.167969 201.109375 L 172.851562 201.109375 C 172.40625 201.109375 172.050781 200.753906 172.050781 200.3125 C 172.050781 199.867188 172.40625 199.511719 172.851562 199.511719 L 177.167969 199.511719 C 177.609375 199.511719 177.96875 199.867188 177.96875 200.3125 C 177.96875 200.753906 177.609375 201.109375 177.167969 201.109375 " fill-opacity="1" fill-rule="nonzero"/><path fill="#b9ff66" d="M 176.425781 207.21875 L 152.890625 207.21875 C 152.449219 207.21875 152.089844 206.859375 152.089844 206.417969 C 152.089844 205.976562 152.449219 205.617188 152.890625 205.617188 L 176.425781 205.617188 C 176.867188 205.617188 177.222656 205.976562 177.222656 206.417969 C 177.222656 206.859375 176.867188 207.21875 176.425781 207.21875 " fill-opacity="1" fill-rule="nonzero"/><path fill="#000000" d="M 106.519531 173.355469 C 106.234375 173.355469 105.992188 173.570312 105.957031 173.851562 L 99.503906 222.199219 C 99.484375 222.339844 99.527344 222.476562 99.617188 222.582031 C 99.710938 222.6875 99.839844 222.746094 99.980469 222.746094 L 180.777344 222.746094 C 181.0625 222.746094 181.304688 222.53125 181.339844 222.246094 L 187.6875 174.65625 C 187.730469 174.328125 187.628906 173.996094 187.410156 173.746094 C 187.191406 173.5 186.878906 173.355469 186.546875 173.355469 Z M 180.777344 223.429688 L 99.980469 223.429688 C 99.644531 223.429688 99.324219 223.285156 99.101562 223.03125 C 98.882812 222.78125 98.78125 222.445312 98.824219 222.109375 L 105.277344 173.765625 C 105.355469 173.140625 105.890625 172.667969 106.519531 172.667969 L 186.546875 172.667969 C 187.074219 172.667969 187.578125 172.898438 187.925781 173.292969 C 188.273438 173.691406 188.4375 174.21875 188.367188 174.746094 L 182.019531 222.335938 C 181.941406 222.960938 181.40625 223.429688 180.777344 223.429688 " fill-opacity="1" fill-rule="nonzero"/><path fill="#000000" d="M 175.765625 155.765625 C 175.542969 155.765625 175.320312 155.757812 175.09375 155.746094 C 168.710938 155.382812 163.8125 149.898438 164.175781 143.511719 C 164.1875 143.246094 164.214844 142.976562 164.246094 142.710938 C 164.269531 142.519531 164.441406 142.386719 164.628906 142.410156 C 164.820312 142.433594 164.953125 142.605469 164.929688 142.792969 C 164.894531 143.046875 164.871094 143.300781 164.859375 143.550781 C 164.519531 149.558594 169.128906 154.722656 175.136719 155.058594 C 178.042969 155.226562 180.84375 154.246094 183.019531 152.304688 C 185.191406 150.363281 186.476562 147.695312 186.640625 144.785156 C 186.808594 141.875 185.828125 139.074219 183.890625 136.902344 C 181.949219 134.730469 179.277344 133.441406 176.367188 133.277344 C 175.628906 133.234375 174.882812 133.265625 174.160156 133.375 C 173.972656 133.402344 173.796875 133.269531 173.769531 133.082031 C 173.742188 132.894531 173.871094 132.722656 174.058594 132.695312 C 174.832031 132.582031 175.621094 132.546875 176.40625 132.589844 C 179.5 132.765625 182.335938 134.136719 184.398438 136.445312 C 186.464844 138.757812 187.503906 141.730469 187.328125 144.824219 C 187.152344 147.914062 185.785156 150.753906 183.472656 152.816406 C 181.332031 154.730469 178.617188 155.765625 175.765625 155.765625 " fill-opacity="1" fill-rule="nonzero"/><path fill="#b9ff66" d="M 174.453125 151.886719 C 173.960938 151.855469 173.515625 151.570312 173.289062 151.128906 L 169.054688 142.921875 C 168.699219 142.234375 168.96875 141.386719 169.65625 141.035156 C 170.34375 140.679688 171.1875 140.949219 171.542969 141.636719 L 174.648438 147.65625 L 180.429688 138.390625 C 180.839844 137.734375 181.703125 137.53125 182.359375 137.941406 C 183.015625 138.351562 183.214844 139.214844 182.804688 139.871094 L 175.722656 151.230469 C 175.453125 151.65625 174.980469 151.90625 174.476562 151.886719 C 174.46875 151.886719 174.460938 151.886719 174.453125 151.886719 " fill-opacity="1" fill-rule="nonzero"/><path fill="#000000" d="M 240.058594 188.222656 C 239.894531 188.222656 239.730469 188.21875 239.566406 188.207031 C 237.300781 188.078125 235.222656 187.078125 233.710938 185.382812 C 232.199219 183.691406 231.4375 181.511719 231.566406 179.246094 C 231.695312 176.980469 232.695312 174.902344 234.390625 173.390625 C 236.082031 171.878906 238.257812 171.121094 240.527344 171.246094 C 240.976562 171.269531 241.425781 171.332031 241.859375 171.425781 C 242.046875 171.464844 242.164062 171.648438 242.121094 171.835938 C 242.082031 172.019531 241.898438 172.136719 241.714844 172.09375 C 241.3125 172.007812 240.902344 171.953125 240.488281 171.929688 C 238.40625 171.808594 236.402344 172.511719 234.847656 173.902344 C 233.289062 175.292969 232.367188 177.203125 232.25 179.285156 C 232.132812 181.367188 232.832031 183.371094 234.222656 184.925781 C 235.613281 186.484375 237.523438 187.40625 239.605469 187.523438 C 243.90625 187.769531 247.601562 184.464844 247.84375 180.167969 C 247.851562 180.019531 247.855469 179.875 247.855469 179.730469 C 247.855469 179.539062 248.011719 179.386719 248.199219 179.386719 C 248.390625 179.386719 248.542969 179.539062 248.542969 179.730469 C 248.542969 179.886719 248.535156 180.046875 248.527344 180.207031 C 248.398438 182.472656 247.398438 184.550781 245.703125 186.0625 C 244.136719 187.464844 242.144531 188.222656 240.058594 188.222656 " fill-opacity="1" fill-rule="nonzero"/><path fill="#b9ff66" d="M 239.109375 185.316406 C 238.75 185.296875 238.429688 185.089844 238.261719 184.769531 L 235.195312 178.820312 C 234.9375 178.324219 235.132812 177.710938 235.628906 177.457031 C 236.128906 177.199219 236.742188 177.394531 236.996094 177.890625 L 239.25 182.253906 L 243.4375 175.539062 C 243.734375 175.066406 244.359375 174.917969 244.835938 175.214844 C 245.308594 175.511719 245.453125 176.136719 245.15625 176.613281 L 240.023438 184.839844 C 239.832031 185.152344 239.488281 185.332031 239.121094 185.316406 C 239.117188 185.316406 239.113281 185.316406 239.109375 185.316406 " fill-opacity="1" fill-rule="nonzero"/><path fill="#ffffff" d="M 119.203125 261.160156 L 119.730469 266.171875 L 123.117188 266.570312 L 123.117188 260.628906 L 119.203125 261.160156 " fill-opacity="1" fill-rule="nonzero"/><path fill="#000000" d="M 120.042969 265.863281 L 122.773438 266.183594 L 122.773438 261.019531 L 119.578125 261.457031 Z M 123.117188 266.914062 C 123.105469 266.914062 123.089844 266.914062 123.078125 266.910156 L 119.691406 266.511719 C 119.53125 266.496094 119.40625 266.367188 119.386719 266.207031 L 118.863281 261.199219 C 118.84375 261.011719 118.972656 260.847656 119.15625 260.824219 L 123.070312 260.289062 C 123.171875 260.277344 123.269531 260.304688 123.34375 260.371094 C 123.417969 260.433594 123.460938 260.527344 123.460938 260.628906 L 123.460938 266.570312 C 123.460938 266.667969 123.417969 266.761719 123.34375 266.824219 C 123.28125 266.882812 123.199219 266.914062 123.117188 266.914062 " fill-opacity="1" fill-rule="nonzero"/><path fill="#ffffff" d="M 123.652344 275.292969 C 122.238281 275.492188 119.921875 275.667969 117.207031 275.289062 C 116.316406 275.167969 115.726562 274.300781 115.941406 273.429688 C 116.539062 270.996094 117.570312 266.382812 119.339844 264.242188 L 119.777344 265.402344 L 120.386719 264.3125 C 120.46875 264.164062 120.617188 264.0625 120.789062 264.039062 L 122.117188 263.871094 C 122.394531 263.835938 122.65625 264.019531 122.710938 264.292969 L 122.921875 265.300781 L 123.386719 263.980469 L 124.933594 273.597656 C 125.042969 274.417969 124.472656 275.175781 123.652344 275.292969 " fill-opacity="1" fill-rule="nonzero"/><path fill="#000000" d="M 119.242188 264.953125 C 117.851562 267.027344 116.953125 270.710938 116.402344 272.984375 L 116.273438 273.511719 C 116.191406 273.835938 116.253906 274.167969 116.441406 274.445312 C 116.625 274.71875 116.921875 274.90625 117.253906 274.949219 C 119.90625 275.316406 122.171875 275.152344 123.601562 274.953125 C 124.234375 274.863281 124.679688 274.277344 124.59375 273.640625 L 123.261719 265.367188 L 123.246094 265.414062 C 123.195312 265.558594 123.054688 265.648438 122.902344 265.640625 C 122.746094 265.632812 122.621094 265.519531 122.589844 265.371094 L 122.375 264.363281 C 122.355469 264.265625 122.261719 264.195312 122.160156 264.210938 L 120.832031 264.378906 C 120.769531 264.386719 120.714844 264.421875 120.683594 264.480469 L 120.078125 265.570312 C 120.011719 265.6875 119.886719 265.757812 119.753906 265.746094 C 119.621094 265.738281 119.503906 265.652344 119.457031 265.523438 Z M 120.449219 275.855469 C 119.453125 275.855469 118.34375 275.792969 117.160156 275.628906 C 116.636719 275.554688 116.167969 275.265625 115.871094 274.832031 C 115.578125 274.394531 115.480469 273.855469 115.605469 273.347656 L 115.734375 272.824219 C 116.347656 270.300781 117.375 266.078125 119.074219 264.023438 C 119.152344 263.929688 119.277344 263.886719 119.394531 263.90625 C 119.515625 263.925781 119.617188 264.007812 119.660156 264.121094 L 119.835938 264.59375 L 120.085938 264.144531 C 120.222656 263.902344 120.46875 263.734375 120.746094 263.699219 L 122.074219 263.53125 C 122.46875 263.480469 122.84375 263.707031 122.996094 264.058594 L 123.0625 263.867188 C 123.117188 263.71875 123.261719 263.621094 123.417969 263.636719 C 123.574219 263.652344 123.699219 263.769531 123.726562 263.925781 L 125.273438 273.542969 C 125.40625 274.558594 124.699219 275.492188 123.699219 275.632812 C 122.863281 275.75 121.75 275.855469 120.449219 275.855469 " fill-opacity="1" fill-rule="nonzero"/><path fill="#000000" d="M 119.726562 274.242188 C 118.8125 274.242188 117.824219 274.160156 116.839844 273.9375 C 116.652344 273.894531 116.539062 273.710938 116.582031 273.527344 C 116.621094 273.339844 116.808594 273.226562 116.992188 273.269531 C 120.277344 274.015625 123.710938 273.054688 123.746094 273.042969 C 123.929688 272.992188 124.117188 273.097656 124.171875 273.277344 C 124.222656 273.460938 124.117188 273.652344 123.933594 273.703125 C 123.828125 273.734375 122.015625 274.242188 119.726562 274.242188 " fill-opacity="1" fill-rule="nonzero"/><path fill="#000000" d="M 118.917969 270.515625 C 118.734375 270.515625 118.582031 270.371094 118.574219 270.183594 C 118.570312 269.996094 118.71875 269.835938 118.90625 269.832031 L 122.082031 269.726562 C 122.269531 269.714844 122.429688 269.867188 122.4375 270.058594 C 122.441406 270.246094 122.292969 270.40625 122.105469 270.410156 L 118.929688 270.515625 C 118.925781 270.515625 118.921875 270.515625 118.917969 270.515625 " fill-opacity="1" fill-rule="nonzero"/><path fill="#ffffff" d="M 135.070312 258.496094 L 135.578125 265.804688 L 139.65625 265.804688 L 139.847656 258.496094 L 135.070312 258.496094 " fill-opacity="1" fill-rule="nonzero"/><path fill="#000000" d="M 135.898438 265.464844 L 139.320312 265.464844 L 139.492188 258.835938 L 135.4375 258.835938 Z M 139.65625 266.148438 L 135.578125 266.148438 C 135.398438 266.148438 135.25 266.007812 135.238281 265.828125 L 134.730469 258.519531 C 134.722656 258.421875 134.757812 258.328125 134.820312 258.261719 C 134.886719 258.191406 134.976562 258.152344 135.070312 258.152344 L 139.847656 258.152344 C 139.9375 258.152344 140.027344 258.1875 140.089844 258.253906 C 140.15625 258.320312 140.191406 258.410156 140.1875 258.503906 L 140 265.816406 C 139.996094 266 139.84375 266.148438 139.65625 266.148438 " fill-opacity="1" fill-rule="nonzero"/><path fill="#ffffff" d="M 134.515625 269.933594 C 134.503906 270.625 134.976562 271.234375 135.652344 271.390625 C 137.996094 271.933594 143.273438 273.148438 144.78125 273.375 C 146.734375 273.664062 149.136719 273.066406 150.167969 271.921875 C 151.203125 270.777344 147.855469 268.050781 146.269531 267.058594 C 143.910156 265.582031 141.644531 262.664062 140.695312 262.535156 C 139.746094 262.402344 137.972656 265.160156 137.972656 265.160156 L 135.070312 263.941406 C 135.070312 263.941406 134.566406 266.425781 134.515625 269.933594 " fill-opacity="1" fill-rule="nonzero"/><path fill="#000000" d="M 134.515625 269.933594 Z M 135.335938 264.421875 C 135.191406 265.265625 134.894531 267.324219 134.859375 269.9375 C 134.851562 270.46875 135.214844 270.9375 135.730469 271.054688 C 137.964844 271.574219 143.328125 272.8125 144.832031 273.035156 C 146.710938 273.3125 148.992188 272.710938 149.914062 271.691406 C 149.972656 271.628906 150.042969 271.523438 150.011719 271.308594 C 149.863281 270.234375 147.636719 268.316406 146.085938 267.347656 C 144.882812 266.59375 143.734375 265.507812 142.726562 264.546875 C 141.882812 263.75 141.015625 262.925781 140.648438 262.875 C 140.210938 262.808594 139.058594 264.101562 138.257812 265.34375 C 138.167969 265.484375 137.992188 265.539062 137.839844 265.476562 Z M 145.796875 273.789062 C 145.433594 273.789062 145.078125 273.765625 144.730469 273.710938 C 143.199219 273.484375 137.816406 272.246094 135.574219 271.722656 C 134.75 271.53125 134.160156 270.777344 134.171875 269.929688 C 134.222656 266.429688 134.714844 263.976562 134.734375 263.875 C 134.757812 263.773438 134.820312 263.6875 134.910156 263.636719 C 135.003906 263.589844 135.109375 263.585938 135.203125 263.625 L 137.839844 264.734375 C 138.417969 263.871094 139.765625 262.066406 140.742188 262.195312 C 141.300781 262.269531 142.003906 262.917969 143.195312 264.050781 C 144.183594 264.988281 145.304688 266.046875 146.449219 266.765625 C 147.480469 267.410156 150.46875 269.609375 150.691406 271.214844 C 150.742188 271.578125 150.648438 271.902344 150.421875 272.152344 C 149.523438 273.148438 147.628906 273.789062 145.796875 273.789062 " fill-opacity="1" fill-rule="nonzero"/><path fill="#000000" d="M 145.761719 272.441406 C 141.476562 272.441406 135.773438 270.136719 135.449219 270.007812 C 135.273438 269.933594 135.191406 269.734375 135.261719 269.558594 C 135.335938 269.382812 135.535156 269.300781 135.710938 269.371094 C 135.8125 269.414062 146.046875 273.550781 149.015625 270.867188 C 149.15625 270.742188 149.375 270.753906 149.5 270.894531 C 149.628906 271.035156 149.617188 271.25 149.476562 271.378906 C 148.617188 272.152344 147.277344 272.441406 145.761719 272.441406 " fill-opacity="1" fill-rule="nonzero"/><path fill="#000000" d="M 141.242188 268.019531 C 141.148438 268.019531 141.054688 267.980469 140.988281 267.90625 C 140.863281 267.765625 140.871094 267.550781 141.011719 267.421875 L 143.085938 265.550781 C 143.226562 265.425781 143.445312 265.4375 143.570312 265.578125 C 143.699219 265.714844 143.6875 265.933594 143.546875 266.0625 L 141.472656 267.929688 C 141.40625 267.988281 141.324219 268.019531 141.242188 268.019531 " fill-opacity="1" fill-rule="nonzero"/><path fill="#b9ff66" d="M 118.046875 210.828125 C 118.046875 210.828125 116.785156 233.683594 116.125 241.574219 C 115.460938 249.464844 117.667969 262.148438 117.667969 262.148438 L 123.960938 261.820312 C 123.960938 261.820312 124.394531 246.398438 124.859375 242.117188 C 124.859375 242.117188 127.519531 236.308594 128.304688 231.132812 C 129.09375 225.953125 131.777344 217.773438 131.777344 217.773438 C 131.777344 217.773438 133.957031 258.597656 134.167969 261.804688 C 134.167969 261.804688 139.101562 262.023438 140.871094 260.910156 C 140.871094 260.910156 144.003906 246.027344 143.554688 237.925781 C 143.105469 229.828125 143.597656 209.707031 143.597656 209.707031 L 118.046875 210.828125 " fill-opacity="1" fill-rule="nonzero"/><path fill="#000000" d="M 118.371094 211.15625 C 118.21875 213.921875 117.078125 234.296875 116.464844 241.605469 C 115.871094 248.691406 117.632812 259.828125 117.957031 261.792969 L 123.628906 261.492188 C 123.691406 259.269531 124.09375 245.984375 124.519531 242.078125 C 124.523438 242.039062 124.535156 242.003906 124.550781 241.972656 C 124.574219 241.914062 127.195312 236.148438 127.96875 231.078125 C 128.75 225.933594 131.425781 217.75 131.453125 217.667969 C 131.503906 217.511719 131.660156 217.414062 131.824219 217.433594 C 131.984375 217.457031 132.109375 217.589844 132.121094 217.757812 C 132.140625 218.152344 134.191406 256.589844 134.488281 261.46875 C 135.550781 261.492188 139.074219 261.507812 140.566406 260.691406 C 140.886719 259.117188 143.632812 245.476562 143.210938 237.945312 C 142.800781 230.527344 143.183594 212.839844 143.246094 210.066406 Z M 117.667969 262.492188 C 117.503906 262.492188 117.359375 262.375 117.332031 262.207031 C 117.308594 262.082031 115.125 249.390625 115.78125 241.546875 C 116.433594 233.75 117.691406 211.035156 117.707031 210.808594 C 117.714844 210.632812 117.855469 210.492188 118.03125 210.484375 L 143.582031 209.363281 C 143.679688 209.359375 143.769531 209.394531 143.839844 209.460938 C 143.90625 209.527344 143.945312 209.621094 143.941406 209.714844 C 143.9375 209.917969 143.453125 229.914062 143.898438 237.90625 C 144.34375 245.957031 141.238281 260.832031 141.207031 260.980469 C 141.1875 261.070312 141.132812 261.152344 141.050781 261.199219 C 139.214844 262.355469 134.355469 262.15625 134.152344 262.144531 C 133.976562 262.136719 133.835938 262 133.824219 261.824219 C 133.644531 259.050781 131.96875 227.757812 131.535156 219.679688 C 130.707031 222.382812 129.195312 227.554688 128.644531 231.183594 C 127.898438 236.089844 125.460938 241.613281 125.195312 242.207031 C 124.738281 246.5 124.308594 261.675781 124.304688 261.828125 C 124.300781 262.007812 124.15625 262.152344 123.980469 262.160156 L 117.6875 262.492188 C 117.679688 262.492188 117.675781 262.492188 117.667969 262.492188 " fill-opacity="1" fill-rule="nonzero"/><path fill="#000000" d="M 123.703125 242.457031 L 121.777344 242.457031 C 121.589844 242.457031 121.433594 242.304688 121.433594 242.113281 C 121.433594 241.925781 121.589844 241.769531 121.777344 241.769531 L 123.703125 241.769531 C 123.890625 241.769531 124.042969 241.925781 124.042969 242.113281 C 124.042969 242.304688 123.890625 242.457031 123.703125 242.457031 " fill-opacity="1" fill-rule="nonzero"/><path fill="#000000" d="M 137.402344 254.328125 C 137.402344 254.328125 137.398438 254.328125 137.398438 254.328125 C 137.207031 254.324219 137.058594 254.167969 137.058594 253.980469 C 137.128906 250.167969 141.292969 243.367188 141.46875 243.078125 C 141.570312 242.917969 141.78125 242.867188 141.941406 242.96875 C 142.101562 243.066406 142.152344 243.277344 142.054688 243.4375 C 142.011719 243.507812 137.8125 250.367188 137.746094 253.992188 C 137.742188 254.179688 137.589844 254.328125 137.402344 254.328125 " fill-opacity="1" fill-rule="nonzero"/><path fill="#ffffff" d="M 145.589844 174.269531 C 146.046875 174.234375 148.296875 178.839844 155.332031 178.644531 C 162.371094 178.453125 168.015625 170.578125 168.015625 170.578125 C 168.015625 170.578125 170.445312 166.480469 172.289062 165 C 174.132812 163.519531 174.421875 163.324219 174.421875 163.324219 C 174.421875 163.324219 175 164.09375 174.421875 165 C 173.84375 165.90625 172.25 167.601562 172.25 167.601562 C 172.25 167.601562 174.007812 168.570312 173.214844 170.578125 C 172.300781 172.890625 169.730469 172.707031 169.730469 172.707031 C 169.730469 172.707031 164.515625 195.804688 142.953125 184.828125 L 145.589844 174.269531 " fill-opacity="1" fill-rule="nonzero"/><path fill="#000000" d="M 143.351562 184.644531 C 149.589844 187.761719 155.023438 188.277344 159.503906 186.175781 C 167.0625 182.625 169.375 172.730469 169.398438 172.632812 C 169.433594 172.464844 169.585938 172.351562 169.753906 172.363281 C 169.851562 172.371094 172.089844 172.496094 172.894531 170.453125 C 173.570312 168.742188 172.144531 167.9375 172.082031 167.902344 C 171.992188 167.851562 171.925781 167.761719 171.910156 167.65625 C 171.894531 167.550781 171.925781 167.445312 172 167.367188 C 172.015625 167.351562 173.582031 165.683594 174.132812 164.816406 C 174.378906 164.433594 174.359375 164.085938 174.292969 163.851562 C 174.003906 164.074219 173.46875 164.492188 172.503906 165.265625 C 170.730469 166.691406 168.332031 170.714844 168.308594 170.753906 C 168.304688 170.761719 168.300781 170.769531 168.292969 170.777344 C 168.058594 171.105469 162.46875 178.792969 155.34375 178.988281 C 149.605469 179.148438 146.992188 176.234375 145.875 174.988281 C 145.847656 174.957031 145.816406 174.921875 145.789062 174.890625 Z M 153.644531 188.128906 C 150.347656 188.128906 146.71875 187.132812 142.796875 185.132812 C 142.65625 185.0625 142.582031 184.898438 142.621094 184.746094 L 145.257812 174.1875 C 145.292969 174.042969 145.417969 173.941406 145.5625 173.929688 C 145.828125 173.902344 146.003906 174.105469 146.386719 174.53125 C 147.4375 175.703125 149.898438 178.449219 155.324219 178.304688 C 161.992188 178.121094 167.484375 170.722656 167.726562 170.390625 C 167.910156 170.082031 170.238281 166.207031 172.074219 164.734375 C 173.910156 163.257812 174.21875 163.046875 174.230469 163.039062 C 174.382812 162.9375 174.585938 162.972656 174.699219 163.117188 C 174.726562 163.15625 175.410156 164.089844 174.710938 165.183594 C 174.265625 165.886719 173.253906 167.015625 172.769531 167.546875 C 173.425781 168.082031 174.136719 169.179688 173.53125 170.707031 C 172.730469 172.738281 170.746094 173.015625 170 173.046875 C 169.5625 174.6875 166.9375 183.441406 159.792969 186.796875 C 157.898438 187.6875 155.84375 188.128906 153.644531 188.128906 " fill-opacity="1" fill-rule="nonzero"/><path fill="#000000" d="M 110.714844 184.828125 C 110.714844 184.828125 112.828125 171.199219 120.289062 167.847656 C 127.746094 164.492188 137.839844 164.957031 140.625 166.632812 C 143.40625 168.308594 150.660156 175.878906 150.660156 175.878906 L 144.25 184.828125 C 144.25 184.828125 145.714844 208.917969 144.558594 215.277344 C 144.558594 215.277344 137.425781 216.109375 134.402344 214.917969 C 131.378906 213.726562 121.433594 212.058594 116.679688 214.242188 L 117.542969 183.742188 L 110.714844 184.828125 " fill-opacity="1" fill-rule="nonzero"/><path fill="#000000" d="M 123.230469 208.300781 C 123.070312 208.300781 122.925781 208.183594 122.894531 208.015625 C 122.863281 207.828125 122.988281 207.652344 123.171875 207.617188 C 134.441406 205.628906 137.707031 197.855469 137.738281 197.777344 C 137.808594 197.601562 138.011719 197.519531 138.183594 197.589844 C 138.359375 197.660156 138.445312 197.859375 138.375 198.035156 C 138.339844 198.117188 134.929688 206.238281 123.292969 208.292969 C 123.273438 208.296875 123.253906 208.300781 123.230469 208.300781 " fill-opacity="1" fill-rule="nonzero"/><path fill="#b9ff66" d="M 147.90625 178.40625 C 147.78125 178.238281 147.585938 178.140625 147.375 178.140625 L 134.726562 178.140625 C 134.144531 178.140625 133.632812 178.527344 133.472656 179.089844 L 129.195312 194.355469 L 142.898438 194.355469 C 143.378906 194.355469 143.800781 194.035156 143.929688 193.574219 L 148.019531 178.988281 C 148.074219 178.785156 148.035156 178.570312 147.90625 178.40625 " fill-opacity="1" fill-rule="nonzero"/><path fill="#000000" d="M 129.644531 194.011719 L 142.898438 194.011719 C 143.222656 194.011719 143.511719 193.792969 143.601562 193.480469 L 147.6875 178.894531 C 147.714844 178.796875 147.695312 178.691406 147.636719 178.609375 C 147.574219 178.53125 147.476562 178.480469 147.375 178.480469 L 134.726562 178.480469 C 134.300781 178.480469 133.921875 178.769531 133.804688 179.183594 Z M 142.898438 194.699219 L 129.195312 194.699219 C 129.085938 194.699219 128.984375 194.648438 128.921875 194.5625 C 128.855469 194.476562 128.835938 194.367188 128.863281 194.261719 L 133.144531 178.996094 C 133.34375 178.289062 133.992188 177.796875 134.726562 177.796875 L 147.375 177.796875 C 147.691406 177.796875 147.992188 177.945312 148.179688 178.195312 L 148.183594 178.195312 C 148.371094 178.449219 148.433594 178.777344 148.351562 179.082031 L 144.261719 193.664062 C 144.089844 194.273438 143.53125 194.699219 142.898438 194.699219 " fill-opacity="1" fill-rule="nonzero"/><path fill="#ffffff" d="M 111.996094 184.878906 L 119.34375 181.597656 C 119.34375 181.597656 118.308594 194.046875 133.171875 188.296875 C 133.171875 188.296875 132.625 186.699219 132.703125 184.828125 C 132.777344 182.960938 133.898438 184.769531 134.054688 186.285156 C 134.210938 187.804688 137.699219 187.1875 139.796875 186.589844 C 141.894531 185.992188 144.648438 186.382812 139.796875 189.058594 C 134.949219 191.734375 133.882812 190.542969 133.882812 190.542969 C 133.882812 190.542969 127.691406 199.207031 119.984375 197.367188 C 110.503906 195.101562 111.996094 184.878906 111.996094 184.878906 " fill-opacity="1" fill-rule="nonzero"/><path fill="#000000" d="M 112.3125 185.113281 C 112.25 185.742188 112.105469 187.890625 112.769531 190.203125 C 113.816406 193.828125 116.269531 196.128906 120.0625 197.035156 C 120.769531 197.203125 121.464844 197.277344 122.140625 197.277344 C 128.566406 197.277344 133.550781 190.417969 133.605469 190.34375 C 133.667969 190.257812 133.761719 190.203125 133.867188 190.199219 C 133.96875 190.195312 134.070312 190.234375 134.140625 190.3125 C 134.144531 190.3125 135.230469 191.1875 139.632812 188.757812 C 142.167969 187.359375 142.15625 186.832031 142.15625 186.828125 C 142.046875 186.675781 141.078125 186.582031 139.890625 186.921875 C 138.890625 187.207031 135.53125 188.070312 134.246094 187.199219 C 133.933594 186.988281 133.75 186.683594 133.710938 186.320312 C 133.632812 185.554688 133.304688 184.796875 133.078125 184.496094 C 133.066406 184.574219 133.050781 184.683594 133.042969 184.84375 C 132.96875 186.621094 133.492188 188.171875 133.496094 188.1875 C 133.554688 188.359375 133.46875 188.550781 133.296875 188.617188 C 128.164062 190.601562 124.308594 190.667969 121.832031 188.816406 C 119.253906 186.886719 118.980469 183.480469 118.980469 182.132812 Z M 122.1875 197.96875 C 121.445312 197.96875 120.683594 197.886719 119.90625 197.699219 C 110.234375 195.390625 111.640625 184.9375 111.65625 184.832031 C 111.671875 184.714844 111.75 184.617188 111.855469 184.570312 L 119.203125 181.285156 C 119.3125 181.234375 119.441406 181.246094 119.539062 181.316406 C 119.640625 181.386719 119.695312 181.503906 119.683594 181.625 C 119.679688 181.667969 119.355469 186.109375 122.25 188.269531 C 124.472656 189.933594 128.007812 189.875 132.75 188.089844 C 132.59375 187.519531 132.300781 186.25 132.359375 184.8125 C 132.371094 184.539062 132.40625 183.707031 132.988281 183.691406 C 133.742188 183.660156 134.300781 185.34375 134.394531 186.25 C 134.410156 186.410156 134.484375 186.53125 134.628906 186.628906 C 135.402344 187.152344 137.734375 186.820312 139.703125 186.261719 C 140.617188 186 142.441406 185.726562 142.789062 186.574219 C 143.074219 187.265625 142.203125 188.125 139.960938 189.359375 C 136.226562 191.421875 134.609375 191.28125 133.96875 191 C 132.960938 192.316406 128.269531 197.96875 122.1875 197.96875 " fill-opacity="1" fill-rule="nonzero"/><path fill="#ffffff" d="M 134.613281 159.792969 L 134.964844 164.667969 C 135.042969 165.300781 135.5 165.824219 136.117188 165.984375 L 137.828125 166.429688 L 136.71875 167.277344 C 134.253906 169.152344 130.84375 169.15625 128.375 167.285156 L 126.234375 166.347656 L 128.746094 165.476562 C 129.355469 165.339844 129.824219 164.847656 129.9375 164.234375 L 130.875 157.78125 L 134.613281 159.792969 " fill-opacity="1" fill-rule="nonzero"/><path fill="#000000" d="M 127.171875 166.386719 L 128.511719 166.96875 C 128.539062 166.980469 128.5625 166.996094 128.582031 167.011719 C 130.917969 168.785156 134.179688 168.78125 136.511719 167.003906 L 137.0625 166.585938 L 136.03125 166.316406 C 135.269531 166.117188 134.71875 165.488281 134.625 164.707031 L 134.285156 160.003906 L 131.144531 158.316406 L 130.277344 164.28125 C 130.140625 165.039062 129.578125 165.632812 128.839844 165.804688 Z M 132.542969 169.023438 C 131.011719 169.023438 129.484375 168.542969 128.203125 167.582031 L 126.09375 166.664062 C 125.964844 166.609375 125.882812 166.476562 125.890625 166.335938 C 125.894531 166.195312 125.988281 166.070312 126.121094 166.027344 L 128.632812 165.152344 C 128.644531 165.148438 128.65625 165.144531 128.671875 165.140625 C 129.148438 165.035156 129.511719 164.652344 129.597656 164.171875 L 130.539062 157.730469 C 130.554688 157.621094 130.621094 157.523438 130.722656 157.472656 C 130.824219 157.425781 130.941406 157.425781 131.039062 157.480469 L 134.777344 159.488281 C 134.878906 159.542969 134.949219 159.648438 134.957031 159.765625 L 135.304688 164.640625 C 135.367188 165.121094 135.71875 165.527344 136.203125 165.652344 L 137.917969 166.097656 C 138.042969 166.132812 138.140625 166.234375 138.167969 166.363281 C 138.191406 166.492188 138.140625 166.625 138.039062 166.703125 L 136.925781 167.550781 C 135.636719 168.53125 134.089844 169.023438 132.542969 169.023438 " fill-opacity="1" fill-rule="nonzero"/><path fill="#000000" d="M 137.96875 149.925781 C 136.460938 149.804688 138.320312 151.398438 132.78125 149.648438 C 130.574219 148.953125 131.636719 151.574219 131.0625 151.394531 C 128.949219 150.730469 129.023438 150.753906 127.976562 151.003906 C 127.28125 151.167969 126.804688 152.429688 126.910156 153.382812 C 127.054688 154.640625 128.078125 154.984375 128.929688 157.652344 C 129.527344 159.523438 129.34375 160.652344 130.082031 160.9375 C 130.828125 161.230469 131.410156 160.230469 132.246094 160.484375 C 133.332031 160.816406 133.074219 162.707031 134.117188 163.511719 C 134.777344 164.023438 136.332031 164.285156 138.863281 163.121094 C 139.273438 162.933594 139.492188 162.476562 139.382812 162.035156 C 139.242188 161.472656 139.0625 160.761719 138.832031 160.097656 C 137.738281 156.933594 136.636719 156.199219 137.0625 155.394531 C 137.710938 154.160156 140.050781 154.925781 140.464844 153.910156 C 140.894531 152.855469 140.03125 150.085938 137.96875 149.925781 " fill-opacity="1" fill-rule="nonzero"/><path fill="#ffffff" d="M 132.609375 154.277344 L 133.023438 155.09375 C 133.214844 155.476562 133.382812 155.875 133.523438 156.28125 C 133.785156 157.046875 134.246094 158.359375 134.558594 159.074219 C 135.019531 160.121094 138.363281 158.921875 138.363281 158.921875 L 138.578125 158.285156 L 138.964844 158.136719 C 139.039062 158.109375 139.109375 158.0625 139.160156 158 C 139.289062 157.84375 139.292969 157.632812 139.191406 157.476562 C 138.636719 156.613281 137.480469 154.675781 137.089844 152.953125 C 137.089844 152.953125 134.648438 152.265625 132.609375 154.277344 " fill-opacity="1" fill-rule="nonzero"/><path fill="#000000" d="M 133.03125 154.351562 L 133.328125 154.9375 C 133.527344 155.335938 133.703125 155.75 133.847656 156.171875 C 134.097656 156.898438 134.5625 158.226562 134.875 158.933594 C 135.0625 159.363281 136.6875 159.136719 138.089844 158.65625 L 138.25 158.175781 C 138.285156 158.078125 138.359375 158.003906 138.453125 157.964844 L 138.84375 157.816406 C 138.871094 157.804688 138.890625 157.792969 138.894531 157.785156 C 138.933594 157.738281 138.921875 157.691406 138.90625 157.660156 C 138.296875 156.71875 137.242188 154.921875 136.808594 153.242188 C 136.246094 153.140625 134.558594 152.980469 133.03125 154.351562 Z M 135.644531 159.851562 C 135.003906 159.851562 134.457031 159.6875 134.246094 159.210938 C 133.925781 158.480469 133.453125 157.132812 133.199219 156.394531 C 133.066406 156.003906 132.902344 155.617188 132.714844 155.246094 L 132.304688 154.433594 C 132.234375 154.296875 132.261719 154.136719 132.367188 154.03125 C 134.523438 151.90625 137.078125 152.589844 137.183594 152.621094 C 137.304688 152.65625 137.398438 152.753906 137.425781 152.875 C 137.8125 154.574219 138.992188 156.527344 139.480469 157.289062 C 139.667969 157.578125 139.644531 157.949219 139.429688 158.21875 C 139.34375 158.320312 139.226562 158.402344 139.089844 158.457031 L 138.851562 158.550781 L 138.6875 159.03125 C 138.652344 159.132812 138.578125 159.210938 138.476562 159.246094 C 137.953125 159.4375 136.675781 159.851562 135.644531 159.851562 " fill-opacity="1" fill-rule="nonzero"/><path fill="#ffffff" d="M 133.152344 157.105469 C 133.152344 157.105469 132.164062 155.144531 131.371094 155.789062 C 130.574219 156.429688 131.71875 158.566406 133.152344 157.105469 " fill-opacity="1" fill-rule="nonzero"/><path fill="#b9ff66" d="M 228.375 96.992188 C 222.433594 96.992188 216.8125 99.679688 210.90625 106.683594 L 235.371094 106.714844 C 237.695312 106.714844 239.652344 108.378906 240.019531 110.675781 C 240.449219 113.394531 240.457031 116.804688 239.984375 118.609375 C 239.328125 121.125 238.691406 122.90625 238.167969 124.136719 C 237.503906 125.695312 238.007812 127.503906 239.375 128.503906 L 240.445312 129.289062 C 241.980469 130.414062 244.125 130.171875 245.363281 128.730469 C 246.980469 126.855469 249.074219 124.042969 250.449219 120.753906 C 253.894531 112.519531 251.265625 99.523438 239.820312 97.253906 C 237.378906 96.769531 229.644531 96.992188 228.375 96.992188 " fill-opacity="1" fill-rule="nonzero"/><path fill="#000000" d="M 211.648438 106.34375 L 235.371094 106.375 C 237.871094 106.375 239.964844 108.160156 240.355469 110.621094 C 240.808594 113.480469 240.792969 116.878906 240.316406 118.699219 C 239.742188 120.886719 239.125 122.761719 238.480469 124.273438 C 237.878906 125.6875 238.328125 127.3125 239.578125 128.226562 L 240.648438 129.011719 C 242.03125 130.023438 243.988281 129.804688 245.105469 128.507812 C 246.640625 126.726562 248.757812 123.910156 250.132812 120.621094 C 252.210938 115.660156 251.945312 109.433594 249.457031 104.765625 C 247.410156 100.921875 244.054688 98.441406 239.753906 97.589844 C 237.746094 97.191406 231.945312 97.28125 229.464844 97.320312 C 228.964844 97.328125 228.582031 97.332031 228.375 97.332031 C 222.324219 97.335938 216.992188 100.203125 211.648438 106.34375 Z M 242.597656 130.332031 C 241.773438 130.332031 240.949219 130.082031 240.246094 129.566406 L 239.171875 128.78125 C 237.664062 127.675781 237.121094 125.714844 237.851562 124.003906 C 238.480469 122.527344 239.089844 120.683594 239.652344 118.523438 C 240.101562 116.8125 240.113281 113.460938 239.679688 110.726562 C 239.339844 108.601562 237.53125 107.058594 235.371094 107.058594 L 210.90625 107.027344 C 210.773438 107.027344 210.652344 106.949219 210.59375 106.828125 C 210.539062 106.707031 210.558594 106.566406 210.640625 106.464844 C 216.289062 99.769531 221.925781 96.648438 228.375 96.648438 C 228.582031 96.648438 228.957031 96.640625 229.453125 96.632812 C 232.167969 96.589844 237.808594 96.503906 239.886719 96.917969 C 244.398438 97.8125 247.914062 100.414062 250.0625 104.441406 C 252.644531 109.285156 252.917969 115.742188 250.765625 120.886719 C 249.355469 124.257812 247.195312 127.136719 245.625 128.953125 C 244.84375 129.859375 243.726562 130.332031 242.597656 130.332031 " fill-opacity="1" fill-rule="nonzero"/><path fill="#ffffff" d="M 226.21875 106.273438 C 226.839844 104.890625 228.488281 104.308594 229.871094 104.921875 C 230.941406 105.398438 232.328125 106.082031 232.730469 106.582031 C 233.210938 107.179688 233.992188 109.039062 233.34375 110.464844 C 232.757812 111.742188 231.125 112.078125 230.015625 111.21875 C 229.433594 110.769531 228.828125 110.019531 228.457031 108.761719 C 228.25 108.066406 227.777344 107.460938 227.109375 107.171875 C 226.929688 107.09375 226.730469 107.035156 226.523438 107.011719 C 226.242188 106.976562 226.0625 106.699219 226.15625 106.429688 C 226.171875 106.382812 226.191406 106.328125 226.21875 106.273438 " fill-opacity="1" fill-rule="nonzero"/><path fill="#000000" d="M 226.53125 106.414062 C 226.511719 106.460938 226.492188 106.503906 226.480469 106.542969 C 226.46875 106.578125 226.476562 106.605469 226.488281 106.625 C 226.5 106.640625 226.519531 106.664062 226.5625 106.671875 C 226.789062 106.695312 227.019531 106.761719 227.246094 106.859375 C 227.976562 107.175781 228.539062 107.832031 228.785156 108.664062 C 229.085938 109.675781 229.570312 110.441406 230.222656 110.949219 C 230.691406 111.308594 231.285156 111.4375 231.847656 111.296875 C 232.382812 111.164062 232.804688 110.820312 233.03125 110.320312 C 233.617188 109.039062 232.875 107.304688 232.464844 106.796875 C 232.335938 106.636719 231.808594 106.160156 229.734375 105.234375 C 228.503906 104.691406 227.070312 105.21875 226.53125 106.414062 Z M 231.394531 112.039062 C 230.828125 112.039062 230.269531 111.851562 229.804688 111.492188 C 229.03125 110.894531 228.46875 110.007812 228.128906 108.859375 C 227.9375 108.222656 227.515625 107.722656 226.972656 107.488281 C 226.808594 107.417969 226.644531 107.371094 226.480469 107.351562 C 226.246094 107.324219 226.035156 107.191406 225.910156 106.992188 C 225.785156 106.789062 225.753906 106.546875 225.832031 106.320312 C 225.847656 106.265625 225.875 106.199219 225.90625 106.132812 C 226.597656 104.59375 228.441406 103.910156 230.011719 104.609375 C 231.636719 105.332031 232.644531 105.925781 233 106.367188 C 233.574219 107.082031 234.359375 109.058594 233.65625 110.605469 C 233.34375 111.289062 232.746094 111.78125 232.015625 111.964844 C 231.808594 112.015625 231.601562 112.039062 231.394531 112.039062 " fill-opacity="1" fill-rule="nonzero"/><path fill="#ffffff" d="M 236.714844 131.726562 C 236.5 132 236.253906 132.335938 236.046875 132.96875 L 234.292969 138.117188 C 234.207031 138.375 234.378906 138.648438 234.648438 138.679688 C 235.195312 138.742188 235.71875 138.441406 235.9375 137.933594 L 236.730469 136.089844 C 238.273438 136.210938 237.035156 139.808594 236.996094 140.097656 C 236.9375 140.527344 236.796875 141.132812 237.042969 141.515625 L 237.109375 141.613281 C 237.367188 142.007812 237.953125 141.984375 238.171875 141.570312 L 240.273438 137.53125 C 240.546875 137.015625 240.632812 136.417969 240.515625 135.847656 L 239.914062 132.878906 C 239.78125 132.210938 240.042969 131.527344 240.589844 131.121094 L 244.445312 128.609375 C 245.855469 127.574219 243.722656 125.101562 243.722656 125.101562 C 243 124.457031 241.871094 124.542969 241.261719 125.238281 L 236.714844 131.726562 " fill-opacity="1" fill-rule="nonzero"/><path fill="#000000" d="M 236.714844 131.726562 L 236.71875 131.726562 Z M 236.730469 135.746094 C 236.738281 135.746094 236.75 135.746094 236.757812 135.746094 C 237.09375 135.773438 237.371094 135.925781 237.558594 136.191406 C 238.101562 136.96875 237.785156 138.5 237.402344 139.894531 C 237.367188 140.019531 237.34375 140.105469 237.335938 140.148438 C 237.328125 140.207031 237.320312 140.269531 237.308594 140.335938 C 237.257812 140.679688 237.191406 141.109375 237.332031 141.328125 L 237.394531 141.425781 C 237.476562 141.546875 237.59375 141.554688 237.640625 141.550781 C 237.6875 141.550781 237.804688 141.53125 237.867188 141.40625 L 239.96875 137.371094 C 240.207031 136.925781 240.28125 136.40625 240.179688 135.914062 L 239.582031 132.945312 C 239.417969 132.152344 239.734375 131.324219 240.386719 130.84375 L 244.261719 128.320312 C 244.441406 128.183594 244.550781 127.996094 244.578125 127.757812 C 244.671875 126.945312 243.828125 125.757812 243.476562 125.34375 C 243.203125 125.105469 242.84375 124.984375 242.472656 125.007812 C 242.105469 125.03125 241.765625 125.191406 241.53125 125.453125 L 236.996094 131.921875 C 236.996094 131.925781 236.988281 131.933594 236.984375 131.9375 C 236.765625 132.214844 236.554688 132.515625 236.371094 133.074219 L 234.617188 138.226562 C 234.605469 138.257812 234.617188 138.285156 234.625 138.300781 C 234.636719 138.316406 234.65625 138.335938 234.6875 138.335938 C 235.078125 138.382812 235.464844 138.160156 235.621094 137.796875 L 236.414062 135.953125 C 236.46875 135.824219 236.59375 135.746094 236.730469 135.746094 Z M 237.628906 142.238281 C 237.300781 142.238281 237.003906 142.078125 236.820312 141.800781 L 236.757812 141.703125 C 236.472656 141.261719 236.558594 140.691406 236.628906 140.234375 C 236.636719 140.171875 236.648438 140.109375 236.65625 140.050781 C 236.664062 139.992188 236.6875 139.910156 236.738281 139.714844 C 237.195312 138.046875 237.285156 136.996094 236.996094 136.585938 C 236.976562 136.554688 236.949219 136.53125 236.921875 136.507812 L 236.25 138.070312 C 235.976562 138.707031 235.300781 139.097656 234.609375 139.019531 C 234.378906 138.992188 234.171875 138.863281 234.046875 138.664062 C 233.921875 138.46875 233.894531 138.226562 233.96875 138.003906 L 235.722656 132.855469 C 235.9375 132.203125 236.195312 131.835938 236.441406 131.523438 L 240.980469 125.042969 C 240.988281 125.03125 240.996094 125.023438 241.003906 125.011719 C 241.359375 124.609375 241.875 124.359375 242.429688 124.324219 C 242.996094 124.289062 243.535156 124.476562 243.949219 124.847656 C 243.960938 124.855469 243.972656 124.867188 243.980469 124.878906 C 244.042969 124.945312 245.40625 126.542969 245.261719 127.835938 C 245.210938 128.269531 245.003906 128.621094 244.648438 128.882812 L 240.777344 131.40625 C 240.355469 131.71875 240.144531 132.273438 240.253906 132.808594 L 240.851562 135.777344 C 240.984375 136.425781 240.886719 137.105469 240.578125 137.691406 L 238.476562 141.726562 C 238.316406 142.03125 238.015625 142.222656 237.675781 142.238281 C 237.65625 142.238281 237.644531 142.238281 237.628906 142.238281 " fill-opacity="1" fill-rule="nonzero"/><path fill="#ffffff" d="M 231.304688 101.945312 C 231.136719 101.90625 230.980469 101.824219 230.84375 101.710938 L 228.769531 99.992188 C 228.546875 99.855469 228.261719 99.875 228.0625 100.039062 L 226.582031 101.300781 C 226.390625 101.460938 226.113281 101.472656 225.910156 101.328125 L 224.03125 100.042969 L 223.117188 100.335938 C 223.042969 100.359375 222.964844 100.320312 222.941406 100.25 L 222.339844 98.5625 C 222.082031 97.976562 221.203125 97.015625 221.433594 96.796875 C 221.433594 96.796875 224.121094 90.835938 227.082031 92.230469 C 227.507812 92.433594 227.839844 92.796875 228.027344 93.230469 L 228.425781 94.136719 C 228.824219 95.050781 230.855469 97.132812 232.984375 97.675781 C 233.269531 97.746094 233.859375 98.027344 234.433594 98.0625 C 234.859375 98.089844 235.148438 98.503906 235.03125 98.917969 C 234.894531 99.402344 234.785156 99.859375 234.316406 100.640625 C 233.695312 101.667969 232.5 102.222656 231.332031 101.953125 C 231.324219 101.949219 231.3125 101.949219 231.304688 101.945312 " fill-opacity="1" fill-rule="nonzero"/><path fill="#000000" d="M 223.265625 100.132812 L 223.265625 100.136719 C 223.265625 100.132812 223.265625 100.132812 223.265625 100.132812 Z M 228.449219 99.558594 C 228.625 99.558594 228.796875 99.605469 228.953125 99.699219 C 228.964844 99.707031 228.976562 99.71875 228.992188 99.726562 L 231.0625 101.449219 C 231.164062 101.53125 231.273438 101.585938 231.386719 101.613281 C 231.386719 101.613281 231.390625 101.613281 231.390625 101.613281 L 231.308594 101.945312 L 231.398438 101.617188 C 232.414062 101.847656 233.46875 101.386719 234.019531 100.460938 C 234.4375 99.773438 234.554688 99.359375 234.675781 98.921875 L 234.703125 98.824219 C 234.730469 98.726562 234.714844 98.621094 234.65625 98.539062 C 234.621094 98.492188 234.546875 98.414062 234.414062 98.402344 C 233.960938 98.375 233.515625 98.21875 233.195312 98.101562 C 233.074219 98.058594 232.972656 98.023438 232.90625 98.003906 C 230.605469 97.421875 228.535156 95.234375 228.113281 94.273438 L 227.714844 93.367188 C 227.550781 92.996094 227.273438 92.703125 226.933594 92.542969 C 226.464844 92.320312 225.988281 92.304688 225.476562 92.492188 C 223.476562 93.226562 221.835938 96.746094 221.75 96.929688 C 221.804688 97.078125 222.015625 97.390625 222.160156 97.605469 C 222.347656 97.882812 222.542969 98.175781 222.65625 98.425781 C 222.65625 98.433594 222.664062 98.441406 222.664062 98.449219 L 223.199219 99.949219 L 223.925781 99.714844 C 224.027344 99.683594 224.136719 99.699219 224.226562 99.757812 L 226.101562 101.042969 C 226.183594 101.101562 226.289062 101.097656 226.363281 101.035156 L 227.84375 99.777344 C 228.019531 99.628906 228.234375 99.558594 228.449219 99.558594 Z M 231.929688 102.363281 C 231.707031 102.363281 231.480469 102.335938 231.253906 102.285156 L 231.308594 101.945312 L 231.226562 102.28125 C 231.007812 102.226562 230.808594 102.125 230.625 101.976562 L 228.574219 100.273438 C 228.480469 100.222656 228.363281 100.234375 228.285156 100.300781 L 226.804688 101.558594 C 226.496094 101.820312 226.046875 101.839844 225.714844 101.609375 L 223.976562 100.417969 L 223.222656 100.664062 C 222.972656 100.742188 222.707031 100.613281 222.621094 100.363281 L 222.023438 98.691406 C 221.9375 98.496094 221.761719 98.238281 221.589844 97.988281 C 221.195312 97.40625 220.882812 96.941406 221.144531 96.605469 C 221.363281 96.132812 223.039062 92.660156 225.238281 91.847656 C 225.921875 91.597656 226.59375 91.621094 227.226562 91.921875 C 227.71875 92.152344 228.113281 92.566406 228.34375 93.09375 L 228.742188 94 C 229.121094 94.867188 231.101562 96.839844 233.070312 97.339844 C 233.171875 97.367188 233.289062 97.40625 233.425781 97.457031 C 233.710938 97.558594 234.097656 97.695312 234.457031 97.71875 C 234.761719 97.738281 235.039062 97.894531 235.214844 98.140625 C 235.394531 98.394531 235.445312 98.710938 235.363281 99.007812 L 235.335938 99.105469 C 235.207031 99.570312 235.074219 100.046875 234.609375 100.816406 C 234.023438 101.789062 233 102.363281 231.929688 102.363281 " fill-opacity="1" fill-rule="nonzero"/><path fill="#000000" d="M 217.070312 94.445312 C 217.761719 93.136719 218.773438 93.851562 219.4375 90.132812 C 219.835938 87.898438 221.839844 89.257812 222.238281 88.632812 C 223.410156 86.800781 224.113281 86.207031 225.75 87.125 C 226.835938 87.738281 227.683594 90.105469 228.820312 92.234375 C 229.410156 93.335938 228.914062 95.070312 226.832031 94.734375 C 226.183594 94.628906 226.140625 93.617188 225.566406 93.734375 C 224.085938 94.035156 225.304688 95.289062 224.4375 95.730469 C 223.601562 96.148438 223.15625 96.265625 222.078125 96.59375 C 220.773438 96.992188 220.820312 98.527344 218.75 97.972656 C 217.671875 97.683594 216.121094 96.238281 217.070312 94.445312 " fill-opacity="1" fill-rule="nonzero"/><path fill="#ffffff" d="M 269.457031 139.9375 C 269.367188 139.761719 269.175781 139.6875 268.96875 139.6875 L 266.625 139.6875 C 266.707031 137.171875 266.472656 131.78125 263.074219 128.003906 C 260.84375 125.527344 257.738281 124.1875 253.824219 124.066406 C 253.667969 124.0625 253.511719 124.105469 253.394531 124.210938 C 253.273438 124.316406 253.199219 124.453125 253.183594 124.605469 L 252.832031 129.027344 C 252.808594 129.328125 253.035156 129.578125 253.34375 129.589844 C 255.671875 129.683594 257.410156 130.457031 258.636719 131.824219 C 260.757812 134.183594 260.90625 137.859375 260.851562 139.6875 L 258.511719 139.6875 C 258.300781 139.6875 258.097656 139.761719 257.980469 139.9375 C 257.859375 140.117188 257.84375 140.320312 257.9375 140.5 L 262.5625 149.558594 C 262.65625 149.738281 262.84375 149.851562 263.054688 149.851562 C 263.265625 149.851562 263.46875 149.734375 263.585938 149.550781 L 269.421875 140.503906 C 269.539062 140.320312 269.550781 140.117188 269.457031 139.9375 " fill-opacity="1" fill-rule="nonzero"/><path fill="#000000" d="M 258.511719 140.03125 C 258.445312 140.03125 258.324219 140.042969 258.265625 140.125 C 258.214844 140.203125 258.207031 140.277344 258.242188 140.34375 L 262.867188 149.402344 C 262.9375 149.542969 263.195312 149.527344 263.300781 149.363281 L 269.136719 140.316406 C 269.183594 140.238281 269.191406 140.167969 269.152344 140.097656 C 269.125 140.039062 269.035156 140.03125 268.96875 140.03125 L 266.628906 140.03125 C 266.535156 140.03125 266.445312 139.992188 266.378906 139.925781 C 266.316406 139.859375 266.28125 139.769531 266.285156 139.675781 C 266.375 136.941406 266.042969 131.816406 262.820312 128.234375 C 260.640625 125.8125 257.609375 124.527344 253.816406 124.410156 C 253.761719 124.410156 253.675781 124.417969 253.621094 124.46875 C 253.578125 124.503906 253.535156 124.558594 253.527344 124.632812 L 253.175781 129.050781 C 253.167969 129.117188 253.195312 129.160156 253.214844 129.183594 C 253.25 129.222656 253.300781 129.246094 253.355469 129.246094 C 255.71875 129.34375 257.582031 130.132812 258.894531 131.59375 C 260.925781 133.859375 261.265625 137.25 261.195312 139.695312 C 261.191406 139.882812 261.039062 140.03125 260.855469 140.03125 Z M 263.054688 150.191406 C 262.714844 150.191406 262.40625 150.007812 262.257812 149.710938 L 257.628906 140.65625 C 257.484375 140.367188 257.507812 140.035156 257.695312 139.75 C 257.863281 139.492188 258.160156 139.34375 258.511719 139.34375 L 260.519531 139.34375 C 260.539062 137.386719 260.253906 134.136719 258.382812 132.050781 C 257.183594 130.714844 255.53125 130.023438 253.328125 129.929688 C 253.082031 129.921875 252.859375 129.816406 252.703125 129.640625 C 252.546875 129.464844 252.472656 129.238281 252.492188 129 L 252.84375 124.578125 C 252.863281 124.339844 252.976562 124.117188 253.167969 123.953125 C 253.34375 123.796875 253.585938 123.714844 253.835938 123.726562 C 257.824219 123.847656 261.019531 125.210938 263.328125 127.777344 C 266.578125 131.386719 267.027344 136.433594 266.976562 139.34375 L 268.96875 139.34375 C 269.328125 139.34375 269.617188 139.503906 269.761719 139.78125 C 269.914062 140.070312 269.898438 140.402344 269.710938 140.6875 L 263.875 149.738281 C 263.695312 150.015625 263.378906 150.191406 263.054688 150.191406 " fill-opacity="1" fill-rule="nonzero"/><path fill="#000000" d="M 213.125 264.554688 C 212.964844 264.554688 212.824219 264.445312 212.789062 264.28125 C 212.746094 264.09375 212.863281 263.910156 213.050781 263.867188 C 214.382812 263.570312 215.726562 263.238281 217.039062 262.886719 C 217.222656 262.835938 217.414062 262.945312 217.460938 263.132812 C 217.511719 263.316406 217.402344 263.507812 217.214844 263.554688 C 215.894531 263.910156 214.546875 264.242188 213.199219 264.542969 C 213.175781 264.550781 213.152344 264.554688 213.125 264.554688 " fill-opacity="1" fill-rule="nonzero"/><path fill="#000000" d="M 274.113281 111.269531 C 274.011719 111.269531 273.910156 111.226562 273.84375 111.140625 C 268.679688 104.730469 262.296875 99.1875 254.871094 94.660156 C 254.710938 94.5625 254.660156 94.351562 254.761719 94.1875 C 254.859375 94.027344 255.070312 93.976562 255.230469 94.074219 C 262.722656 98.640625 269.164062 104.238281 274.378906 110.710938 C 274.496094 110.859375 274.472656 111.074219 274.328125 111.195312 C 274.261719 111.242188 274.1875 111.269531 274.113281 111.269531 " fill-opacity="1" fill-rule="nonzero"/><path fill="#000000" d="M 266.886719 109.140625 C 266.792969 109.140625 266.699219 109.101562 266.632812 109.027344 C 259.898438 101.507812 251.421875 95.535156 241.4375 91.269531 C 241.261719 91.195312 241.179688 90.992188 241.253906 90.820312 C 241.328125 90.644531 241.53125 90.566406 241.703125 90.640625 C 251.78125 94.945312 260.339844 100.976562 267.144531 108.570312 C 267.269531 108.710938 267.257812 108.929688 267.117188 109.054688 C 267.050781 109.113281 266.96875 109.140625 266.886719 109.140625 " fill-opacity="1" fill-rule="nonzero"/><path fill="#000000" d="M 217.125 263.5625 C 216.976562 263.5625 216.835938 263.460938 216.796875 263.308594 C 216.746094 263.125 216.855469 262.9375 217.039062 262.890625 C 235.347656 257.96875 251.417969 247.742188 262.292969 234.09375 C 262.410156 233.945312 262.625 233.921875 262.773438 234.039062 C 262.925781 234.15625 262.949219 234.371094 262.828125 234.519531 C 257.316406 241.4375 250.570312 247.457031 242.769531 252.410156 C 235.023438 257.328125 226.425781 261.078125 217.214844 263.550781 C 217.1875 263.558594 217.15625 263.5625 217.125 263.5625 " fill-opacity="1" fill-rule="nonzero"/><path fill="#000000" d="M 226.71875 255.332031 C 226.582031 255.332031 226.453125 255.25 226.398438 255.117188 C 226.328125 254.941406 226.414062 254.738281 226.589844 254.667969 C 239.296875 249.550781 250.3125 241.621094 258.449219 231.726562 C 258.570312 231.582031 258.785156 231.5625 258.933594 231.679688 C 259.078125 231.800781 259.101562 232.019531 258.980469 232.164062 C 250.769531 242.144531 239.65625 250.144531 226.847656 255.304688 C 226.800781 255.324219 226.761719 255.332031 226.71875 255.332031 " fill-opacity="1" fill-rule="nonzero"/><path fill="#000000" d="M 206.660156 264.664062 C 206.597656 265.324219 207.089844 265.914062 207.753906 265.972656 C 208.414062 266.035156 209.003906 265.542969 209.0625 264.878906 C 209.09375 264.558594 208.996094 264.246094 208.789062 264 C 208.582031 263.75 208.289062 263.597656 207.96875 263.570312 C 207.648438 263.539062 207.335938 263.636719 207.085938 263.84375 C 206.839844 264.050781 206.6875 264.339844 206.660156 264.664062 Z M 207.863281 266.664062 C 207.804688 266.664062 207.75 266.660156 207.691406 266.65625 C 206.652344 266.5625 205.882812 265.640625 205.976562 264.601562 C 206.023438 264.097656 206.261719 263.640625 206.648438 263.316406 C 207.039062 262.992188 207.527344 262.839844 208.03125 262.886719 C 208.535156 262.933594 208.992188 263.171875 209.316406 263.558594 C 209.636719 263.949219 209.789062 264.4375 209.746094 264.941406 C 209.65625 265.921875 208.828125 266.664062 207.863281 266.664062 " fill-opacity="1" fill-rule="nonzero"/><path fill="#000000" d="M 193.203125 93.25 C 193.140625 93.25 193.082031 93.234375 193.023438 93.199219 L 191.796875 92.449219 C 191.636719 92.351562 191.585938 92.140625 191.683594 91.976562 C 191.785156 91.816406 191.996094 91.765625 192.15625 91.863281 L 193.382812 92.617188 C 193.542969 92.714844 193.59375 92.925781 193.496094 93.089844 C 193.429688 93.195312 193.316406 93.25 193.203125 93.25 " fill-opacity="1" fill-rule="nonzero"/><path fill="#000000" d="M 197.492188 95.882812 C 197.429688 95.882812 197.367188 95.863281 197.3125 95.828125 L 196.085938 95.078125 C 195.925781 94.980469 195.875 94.769531 195.976562 94.605469 C 196.074219 94.445312 196.285156 94.394531 196.445312 94.496094 L 197.671875 95.246094 C 197.832031 95.34375 197.882812 95.554688 197.785156 95.71875 C 197.71875 95.824219 197.609375 95.882812 197.492188 95.882812 " fill-opacity="1" fill-rule="nonzero"/><path fill="#000000" d="M 193.058594 96.957031 C 193 96.957031 192.9375 96.941406 192.882812 96.90625 C 192.722656 96.808594 192.671875 96.597656 192.769531 96.4375 L 193.511719 95.207031 C 193.609375 95.042969 193.820312 94.992188 193.980469 95.089844 C 194.144531 95.191406 194.195312 95.402344 194.097656 95.5625 L 193.355469 96.792969 C 193.289062 96.898438 193.175781 96.957031 193.058594 96.957031 " fill-opacity="1" fill-rule="nonzero"/><path fill="#000000" d="M 195.664062 92.652344 C 195.605469 92.652344 195.542969 92.636719 195.488281 92.601562 C 195.324219 92.503906 195.273438 92.292969 195.371094 92.132812 L 196.117188 90.902344 C 196.214844 90.738281 196.425781 90.6875 196.585938 90.785156 C 196.75 90.882812 196.800781 91.09375 196.703125 91.257812 L 195.957031 92.488281 C 195.894531 92.59375 195.78125 92.652344 195.664062 92.652344 " fill-opacity="1" fill-rule="nonzero"/><path fill="#000000" d="M 174.757812 100.234375 C 174.695312 100.898438 175.1875 101.484375 175.851562 101.546875 C 176.515625 101.605469 177.101562 101.113281 177.160156 100.453125 C 177.1875 100.132812 177.09375 99.816406 176.886719 99.570312 C 176.679688 99.324219 176.386719 99.171875 176.066406 99.140625 C 175.746094 99.113281 175.433594 99.210938 175.183594 99.417969 C 174.9375 99.625 174.785156 99.914062 174.757812 100.234375 Z M 175.960938 102.238281 C 175.902344 102.238281 175.847656 102.234375 175.789062 102.230469 C 174.75 102.132812 173.980469 101.210938 174.074219 100.171875 C 174.117188 99.667969 174.355469 99.214844 174.746094 98.890625 C 175.132812 98.566406 175.625 98.414062 176.128906 98.457031 C 176.632812 98.503906 177.085938 98.742188 177.414062 99.132812 C 177.734375 99.519531 177.886719 100.011719 177.84375 100.515625 C 177.753906 101.496094 176.925781 102.238281 175.960938 102.238281 " fill-opacity="1" fill-rule="nonzero"/><path fill="#000000" d="M 173.453125 262.390625 C 173.398438 262.390625 173.34375 262.378906 173.289062 262.351562 C 173.125 262.257812 173.0625 262.050781 173.152344 261.886719 L 173.671875 260.925781 C 173.761719 260.757812 173.972656 260.695312 174.136719 260.789062 C 174.304688 260.878906 174.367188 261.085938 174.277344 261.25 L 173.757812 262.210938 C 173.695312 262.328125 173.578125 262.390625 173.453125 262.390625 " fill-opacity="1" fill-rule="nonzero"/><path fill="#000000" d="M 170.964844 266.988281 C 170.90625 266.988281 170.851562 266.972656 170.800781 266.945312 C 170.632812 266.855469 170.570312 266.648438 170.660156 266.480469 L 171.183594 265.519531 C 171.273438 265.355469 171.480469 265.292969 171.648438 265.382812 C 171.8125 265.472656 171.875 265.679688 171.785156 265.847656 L 171.265625 266.808594 C 171.203125 266.921875 171.085938 266.988281 170.964844 266.988281 " fill-opacity="1" fill-rule="nonzero"/><path fill="#000000" d="M 175.265625 265.707031 C 175.210938 265.707031 175.152344 265.695312 175.101562 265.667969 L 174.136719 265.148438 C 173.96875 265.058594 173.90625 264.851562 173.996094 264.683594 C 174.085938 264.519531 174.292969 264.457031 174.460938 264.546875 L 175.425781 265.0625 C 175.59375 265.152344 175.65625 265.359375 175.566406 265.527344 C 175.503906 265.640625 175.386719 265.707031 175.265625 265.707031 " fill-opacity="1" fill-rule="nonzero"/><path fill="#000000" d="M 170.636719 263.226562 C 170.582031 263.226562 170.527344 263.214844 170.476562 263.1875 L 169.511719 262.671875 C 169.34375 262.582031 169.28125 262.371094 169.371094 262.207031 C 169.460938 262.039062 169.667969 261.976562 169.835938 262.066406 L 170.800781 262.582031 C 170.96875 262.671875 171.03125 262.882812 170.941406 263.046875 C 170.878906 263.164062 170.761719 263.226562 170.636719 263.226562 " fill-opacity="1" fill-rule="nonzero"/></svg>