<svg xmlns="http://www.w3.org/2000/svg" version="1.1" viewBox="15 14 70 72"> <path d="m45.957 52.746c-2.2148-0.6875-4.5273-1.0781-7.3359-0.375-1.2305 0.30469-2.5156 1.0938-3.7969 2.2539-1.2695 1.1484-2.4375 2.5781-3.4414 4.0078-0.99609 1.4258-1.8047 2.8086-2.3633 3.8359-0.27734 0.51172-0.49219 0.93359-0.63281 1.2227-0.070313 0.14453-0.125 0.25781-0.16016 0.33203-0.019531 0.035156-0.03125 0.0625-0.039062 0.078124-0.003906 0.007813-0.003906 0.015626-0.007812 0.019532-0.03125 0.070312-0.066407 0.13672-0.10547 0.20312l-13.074 21.676h20.672l1.5352-7.7578c0.52344-2.6406 1.8438-5.7539 4.8477-7.2422 2.1641-1.0742 4.5703-1.5781 7-1.4766 6.2578 0.25391 16.359 0.33203 22.637-1.2305 1.5898-0.39844 3.8711-1.6445 6.3203-3.2852 2.3867-1.5977 4.7227-3.418 6.375-4.7656 0.60156-0.48828 0.8125-1.418 0.39453-2.2227-0.52734-1.0117-1.8672-1.3281-2.8438-0.59375-2.1328 1.6133-5.332 3.0234-8.1445 4.0781-2.7969 1.0508-5.7305 1.4648-8.6094 1.4922-0.035156 0-0.070313 0.003906-0.10547 0.003906h-10.715c-1.0977 0-1.9883-0.89453-1.9883-2 0-1.0352 0.78125-1.8867 1.7852-1.9883l0.20312-0.011719h10.516c0.078125 0 0.16016 0 0.23828-0.003906 1.0625-0.019532 1.918-0.89844 1.9023-1.9727v-0.023438c0-0.64062-0.23828-1.0391-0.58203-1.3086-0.38281-0.30469-1.0078-0.53125-1.8242-0.49609-3.2812 0.14453-7.875 0.20313-11.641-0.30859-1.2773-0.17578-2.5-0.55859-3.6328-0.95703-1.1914-0.41797-2.2148-0.82422-3.3828-1.1836z" fill-rule="evenodd"></path> <path d="m54.691 31.5c0 1.1055-0.88672 2-1.9844 2h-5.4688v5h5.4688c1.0977 0 1.9844 0.89453 1.9844 2v5.5h4.9688v-5.5c0-1.1055 0.89062-2 1.9883-2h5.4648v-5h-5.4648c-1.0977 0-1.9883-0.89453-1.9883-2v-5.5h-4.9688z" fill-rule="evenodd"></path> <path d="m79.41 22.375c0 1.1055-0.89062 2-1.9883 2h-2.3594v1.25h2.3594c1.0977 0 1.9883 0.89453 1.9883 2v2.375h1.2422v-2.375c0-1.1055 0.89062-2 1.9883-2h2.3594v-1.25h-2.3594c-1.0977 0-1.9883-0.89453-1.9883-2v-2.375h-1.2422z" fill-rule="evenodd"></path> <path d="m39.664 16.375c0 1.1055-0.89062 2-1.9883 2h-2.3594v1.25h2.3594c1.0977 0 1.9883 0.89453 1.9883 2v2.375h1.2422v-2.375c0-1.1055 0.89062-2 1.9883-2h2.3594v-1.25h-2.3594c-1.0977 0-1.9883-0.89453-1.9883-2v-2.375h-1.2422z" fill-rule="evenodd"></path> </svg>