
<svg class="svg-icon" style="width: 1.3203125em; height: 1em;vertical-align: middle;fill: currentColor;overflow: hidden;" viewBox="0 0 1352 1024" version="1.1" xmlns="http://www.w3.org/2000/svg"><path d="M1344.273332 846.16823l1.685609-5.618697a33.993119 33.993119 0 0 0 2.528414-5.056828 56.186973 56.186973 0 0 0 0-21.912919 30.6219 30.6219 0 0 0-1.404674-4.775893l-1.685609-5.618697a56.186973 56.186973 0 0 0-3.090284-5.618698 15.451418 15.451418 0 0 0-2.247479-4.214023 39.892751 39.892751 0 0 0-7.023372-8.428046l-142.433976-142.433977a56.186973 56.186973 0 1 0-79.504567 79.504567l46.635187 46.354253h-171.089333a140.467433 140.467433 0 0 1-104.50777-46.354253l-188.507295-209.577409 188.78823-209.858345a140.467433 140.467433 0 0 1 104.50777-46.635188h168.560919l-46.635187 46.635188a56.186973 56.186973 0 0 0 39.892751 95.798789 56.186973 56.186973 0 0 0 39.611816-16.294222l140.467432-140.467433a56.186973 56.186973 0 0 0 0-82.59485l-140.467432-140.467433a56.186973 56.186973 0 1 0-79.504567 79.223632l46.635187 46.635188h-168.560919a254.246053 254.246053 0 0 0-188.22636 84.280459L618.056704 428.13715l-180.641118-200.868429a252.841379 252.841379 0 0 0-187.945425-84.28046H56.186973a56.186973 56.186973 0 0 0 0 112.373947h193.283188a140.467433 140.467433 0 0 1 104.50777 46.635187l188.507295 209.858345-188.507295 210.139279a140.467433 140.467433 0 0 1-104.226835 46.354253H56.186973a56.186973 56.186973 0 0 0 0 112.373947h193.564123a252.841379 252.841379 0 0 0 187.945425-84.28046L618.056704 596.417135l180.641119 200.587494a252.841379 252.841379 0 0 0 187.945425 84.280459h169.965594L1109.973654 928.201211a56.186973 56.186973 0 0 0 39.892751 95.798789 56.186973 56.186973 0 0 0 39.611816-16.294222l142.433977-142.433977a50.287341 50.287341 0 0 0 7.023372-8.708981 15.451418 15.451418 0 0 0 2.247479-4.214023 33.150314 33.150314 0 0 0 3.090283-6.180567z" fill="#000000" /></svg>